<svg xmlns="http://www.w3.org/2000/svg" xmlns:xlink="http://www.w3.org/1999/xlink" viewBox="0 0 205.23 205.23"><defs><style>.cls-1{fill:none;}.cls-2{clip-path:url(#clip-path);}.cls-3{fill:url(#Degradado_sin_nombre_15);}.cls-4{clip-path:url(#clip-path-2);}.cls-5{fill:url(#Degradado_sin_nombre_15-2);}.cls-6{clip-path:url(#clip-path-3);}.cls-7{fill:url(#Degradado_sin_nombre_15-3);}</style><clipPath id="clip-path"><path class="cls-1" d="M95,52.53A48,48,0,0,0,71,63.09C57,74.68,50.68,89.64,52.27,107.71c1.12,12.62,6.61,23.31,15.87,32a49.21,49.21,0,0,0,25.5,12.75c1.94.34,3.9.57,5.85.85h6.39l3-.41c15.4-2.09,27.47-9.6,36.07-22.48,7.19-10.76,9.58-22.7,7.77-35.48a47.8,47.8,0,0,0-5-15.31c-.16-.3-.5-.7-.79-.72q-3.67-.3-7.36-.44a1.83,1.83,0,0,0-1.22.5c-1.19,1.1-2.27,2.29-3.46,3.39-.54.51-.5.88-.16,1.49a36.88,36.88,0,0,1,4.08,27.49c-4.93,21.68-29,34.28-49.63,26.05A37.18,37.18,0,0,1,66,96c3.42-20.48,24.25-34.39,44.57-29.77A38.47,38.47,0,0,1,122.31,71c1.2-1.23,2.41-2.4,3.54-3.65a2,2,0,0,0,.51-1.33c-.11-2.52-.35-5-.45-7.57a1.2,1.2,0,0,0-.78-1.24,50.07,50.07,0,0,0-22.29-5.25,54.37,54.37,0,0,0-7.89.6"/></clipPath><linearGradient id="Degradado_sin_nombre_15" x1="-338.99" y1="715.7" x2="-336.96" y2="715.7" gradientTransform="matrix(0, -71.96, -71.96, 0, 51601.84, -24208.94)" gradientUnits="userSpaceOnUse"><stop offset="0" stop-color="#0097a6"/><stop offset="0.03" stop-color="#008da2"/><stop offset="0.11" stop-color="#007a9a"/><stop offset="0.18" stop-color="#006f96"/><stop offset="0.27" stop-color="#006b94"/><stop offset="0.52" stop-color="#563881"/><stop offset="0.78" stop-color="#97367d"/><stop offset="1" stop-color="#d3296b"/><stop offset="1" stop-color="#d3296b"/></linearGradient><clipPath id="clip-path-2"><path class="cls-1" d="M83.34,86.81a24.94,24.94,0,1,0,41.84,5.33c-3,2.94-5.81,5.84-8.71,8.69a2.27,2.27,0,0,0-.74,1.82A13.08,13.08,0,1,1,102.8,89.5a1.72,1.72,0,0,0,1.11-.25c3.09-3,6.13-6.1,9.2-9.17a22.79,22.79,0,0,0-10.46-2.41,24.75,24.75,0,0,0-19.31,9.14"/></clipPath><linearGradient id="Degradado_sin_nombre_15-2" x1="-338.99" y1="715.71" x2="-336.96" y2="715.71" gradientTransform="matrix(0, -71.96, -71.96, 0, 51602.91, -24208.5)" xlink:href="#Degradado_sin_nombre_15"/><clipPath id="clip-path-3"><path class="cls-1" d="M144.52,41.08c-.15.06-.26.25-.39.38-4.13,4.13-8.22,8.29-12.4,12.36A7.05,7.05,0,0,0,129.46,60c.25,2.3.35,4.61.6,6.91a2.38,2.38,0,0,1-.78,2.12q-12.5,12.42-24.91,24.91a5.29,5.29,0,0,0-1.28,2.22,12.92,12.92,0,0,0-.28,3.06,3,3,0,0,0,3.16,3.17c.66,0,1.32-.14,2-.1a4.66,4.66,0,0,0,3.78-1.63Q124.3,88,137,75.39a2,2,0,0,1,1.28-.62c2.09.1,4.18.22,6.25.48A7.15,7.15,0,0,0,150.94,73c3.94-4.05,8-8,12-12,.58-.59,1.6-1.06,1.17-2.15C163.72,58,163,58,162.25,58a5.43,5.43,0,0,1-.58,0c-2.17-.2-4.35-.35-6.52-.52-.05-.1-.11-.19-.16-.28.95-.9,1.94-1.76,2.84-2.71a3.44,3.44,0,0,0,0-5c-.56-.59-1.13-1.15-1.71-1.72-1.83-1.82-3.76-1.83-5.57,0-1,1-1.94,2-3.1,3.17-.08-.76-.14-1.22-.17-1.68-.2-2.45-.35-4.9-.61-7.35a1.58,1.58,0,0,0-.79-1.14.55.55,0,0,0-.18,0,4.06,4.06,0,0,0-1.18.41"/></clipPath><linearGradient id="Degradado_sin_nombre_15-3" x1="-338.99" y1="715.36" x2="-336.96" y2="715.36" gradientTransform="matrix(0, -71.96, -71.96, 0, 51608.81, -24239.99)" xlink:href="#Degradado_sin_nombre_15"/></defs><title>aisolutions</title><g id="Capa_2" data-name="Capa 2"><g id="Capa_1-2" data-name="Capa 1"><g class="cls-2"><rect class="cls-3" x="30.05" y="30.05" width="145.12" height="145.12" transform="translate(-42.5 102.61) rotate(-45)"/></g><g class="cls-4"><rect class="cls-5" x="64.73" y="66.14" width="75.55" height="75.55" transform="translate(-43.46 102.92) rotate(-45)"/></g><g class="cls-6"><rect class="cls-7" x="89.98" y="27.87" width="87.29" height="87.29" transform="translate(-11.43 115.43) rotate(-45)"/></g></g></g></svg>