<svg xmlns="http://www.w3.org/2000/svg" xmlns:xlink="http://www.w3.org/1999/xlink" viewBox="0 0 109.77 109.77"><defs><style>.cls-1{fill:none;}.cls-2{clip-path:url(#clip-path);}.cls-3{fill:url(#Degradado_sin_nombre_15);}</style><clipPath id="clip-path"><path class="cls-1" d="M27,49.37A60.31,60.31,0,0,0,22.85,69.5v3.68a29.15,29.15,0,0,0,.35,4.55H44.73a31.46,31.46,0,0,1-.35-4.9v-4A74.66,74.66,0,0,1,46.3,52.52a83.44,83.44,0,0,1,5.43-16.28L36.15,32A81.17,81.17,0,0,0,27,49.37m35.19,0A60.31,60.31,0,0,0,58,69.5v3.68a30.4,30.4,0,0,0,.34,4.55H79.92a32.74,32.74,0,0,1-.35-4.9v-4A74.09,74.09,0,0,1,81.5,52.52a83.42,83.42,0,0,1,5.42-16.28L71.34,32a81.17,81.17,0,0,0-9.19,17.33"/></clipPath><linearGradient id="Degradado_sin_nombre_15" x1="-399.56" y1="416.47" x2="-395.97" y2="416.47" gradientTransform="matrix(0, -24.48, -24.48, 0, 10249.5, -9683.83)" gradientUnits="userSpaceOnUse"><stop offset="0" stop-color="#0097a6"/><stop offset="0.03" stop-color="#008da2"/><stop offset="0.11" stop-color="#007a9a"/><stop offset="0.18" stop-color="#006f96"/><stop offset="0.27" stop-color="#006b94"/><stop offset="0.52" stop-color="#563881"/><stop offset="0.78" stop-color="#97367d"/><stop offset="1" stop-color="#d3296b"/><stop offset="1" stop-color="#d3296b"/></linearGradient></defs><title>comillas</title><g id="Capa_2" data-name="Capa 2"><g id="Capa_1-2" data-name="Capa 1"><g class="cls-2"><rect class="cls-3" x="16.08" y="16.08" width="77.62" height="77.62" transform="translate(-22.73 54.88) rotate(-45)"/></g></g></g></svg>