<svg xmlns="http://www.w3.org/2000/svg" xmlns:xlink="http://www.w3.org/1999/xlink" viewBox="0 0 213.3 213.3"><defs><style>.cls-1{fill:none;}.cls-2{clip-path:url(#clip-path);}.cls-3{fill:url(#Degradado_sin_nombre_15);}.cls-4{clip-path:url(#clip-path-2);}.cls-5{fill:url(#Degradado_sin_nombre_15-2);}.cls-6{clip-path:url(#clip-path-3);}.cls-7{fill:url(#Degradado_sin_nombre_15-3);}.cls-8{clip-path:url(#clip-path-4);}.cls-9{fill:url(#Degradado_sin_nombre_15-4);}.cls-10{clip-path:url(#clip-path-5);}.cls-11{fill:url(#Degradado_sin_nombre_15-5);}</style><clipPath id="clip-path"><path class="cls-1" d="M98.81,114.9V69.73c0-5.13,3.3-8.46,8.42-8.46h41.36c5,0,8.27,3.23,8.28,8.23q0,15.08,0,30.15c0,5.07-3.25,8.33-8.3,8.33-12.19,0-24.38,0-36.57,0a8.85,8.85,0,0,0-6.78,2.54c-2,2-4.13,3.74-6.41,5.78Zm8.08-59.12A13.29,13.29,0,0,0,93.31,69.44c0,5.62,0,11.25,0,16.87v1.4H91.89c-9.15,0-18.29,0-27.44,0A12.9,12.9,0,0,0,52.71,94.5a30.12,30.12,0,0,0-1.81,4.84V134a.87.87,0,0,1,.17.27c.78,5.77,6.11,11.3,13.95,11.24,7.63-.06,15.27-.05,22.92,0h14.2a2.83,2.83,0,0,1,2.11.84q5.37,5,10.82,9.93a4.17,4.17,0,0,0,1.86,1c1.75.33,3-.95,3-2.92q0-16,0-32c0-.22,0-.44,0-.65a2.67,2.67,0,0,0-2.37-2.33c-1.81-.2-3.09,1.05-3.09,3.06q0,12.24,0,24.49v1.37c-.49-.42-.82-.69-1.13-1-2.19-2-4.4-4-6.54-6.07a4.59,4.59,0,0,0-3.42-1.33q-19.32,0-38.65,0c-5.06,0-8.32-3.25-8.32-8.29q0-15,0-29.93c0-5.13,3.32-8.43,8.46-8.43q13.61,0,27.22,0c.38,0,.76,0,1.2.06V94.7c0,9.07,0,18.15,0,27.22a4.16,4.16,0,0,0,.59,2.23c1,1.48,2.88,1.5,4.35.16q5.53-5,11-10a2.73,2.73,0,0,1,2-.79q18.84,0,37.67,0a13.26,13.26,0,0,0,13.4-13.4q0-15.47,0-30.92A13.14,13.14,0,0,0,149,55.78q-10.38,0-20.76,0-10.68,0-21.37,0"/></clipPath><linearGradient id="Degradado_sin_nombre_15" x1="-346.22" y1="602.7" x2="-344.11" y2="602.7" gradientTransform="matrix(0, -66.58, -66.58, 0, 40232.7, -22869.12)" gradientUnits="userSpaceOnUse"><stop offset="0" stop-color="#0097a6"/><stop offset="0.03" stop-color="#008da2"/><stop offset="0.11" stop-color="#007a9a"/><stop offset="0.18" stop-color="#006f96"/><stop offset="0.27" stop-color="#006b94"/><stop offset="0.52" stop-color="#563881"/><stop offset="0.78" stop-color="#97367d"/><stop offset="1" stop-color="#d3296b"/><stop offset="1" stop-color="#d3296b"/></linearGradient><clipPath id="clip-path-2"><path class="cls-1" d="M71.68,113.21A2.76,2.76,0,0,0,68.84,116a2.88,2.88,0,0,0,5.76-.08,2.77,2.77,0,0,0-2.89-2.7h0"/></clipPath><linearGradient id="Degradado_sin_nombre_15-2" x1="-346.22" y1="602.92" x2="-344.11" y2="602.92" gradientTransform="matrix(0, -66.58, -66.58, 0, 40212.28, -22841.52)" xlink:href="#Degradado_sin_nombre_15"/><clipPath id="clip-path-3"><path class="cls-1" d="M78.47,116a2.75,2.75,0,0,0,2.77,2.76,2.81,2.81,0,0,0,3-2.71,2.76,2.76,0,0,0-2.85-2.79h0A2.7,2.7,0,0,0,78.47,116"/></clipPath><linearGradient id="Degradado_sin_nombre_15-3" x1="-346.22" y1="602.87" x2="-344.11" y2="602.87" gradientTransform="matrix(0, -66.58, -66.58, 0, 40218.24, -22848.47)" xlink:href="#Degradado_sin_nombre_15"/><clipPath id="clip-path-4"><path class="cls-1" d="M119.7,79.75a2.74,2.74,0,0,0,5.46.27,6.63,6.63,0,0,1,.24-1.27A2.71,2.71,0,0,1,127.9,77a2.79,2.79,0,0,1,2.55,1.72,2.08,2.08,0,0,1-.77,2.58c-1.08,1-2.19,1.91-3.21,2.93a5.91,5.91,0,0,0-2,4.66,2.66,2.66,0,0,0,2.34,2.47,2.53,2.53,0,0,0,3-1.8,4.44,4.44,0,0,1,1.79-2.59c.71-.63,1.44-1.23,2.1-1.89,2.54-2.55,3.16-5.44,1.87-8.53a8.25,8.25,0,0,0-15.86,3.24"/></clipPath><linearGradient id="Degradado_sin_nombre_15-4" x1="-346.22" y1="602.42" x2="-344.11" y2="602.42" gradientTransform="matrix(0, -66.58, -66.58, 0, 40235.01, -22891.73)" xlink:href="#Degradado_sin_nombre_15"/><clipPath id="clip-path-5"><path class="cls-1" d="M124.64,96.62a2.68,2.68,0,0,0,2.64,2.83,2.76,2.76,0,1,0,0-5.52h0a2.71,2.71,0,0,0-2.67,2.69"/></clipPath><linearGradient id="Degradado_sin_nombre_15-5" x1="-346.22" y1="602.5" x2="-344.11" y2="602.5" gradientTransform="matrix(0, -66.58, -66.58, 0, 40239.99, -22886.58)" xlink:href="#Degradado_sin_nombre_15"/></defs><title>cutumer360</title><g id="Capa_2" data-name="Capa 2"><g id="Capa_1-2" data-name="Capa 1"><g class="cls-2"><rect class="cls-3" x="31.24" y="31.24" width="150.83" height="150.83" transform="translate(-44.18 106.65) rotate(-45)"/></g><g class="cls-4"><rect class="cls-5" x="67.71" y="111.96" width="8.01" height="8.01" transform="translate(-61 84.68) rotate(-45)"/></g><g class="cls-6"><rect class="cls-7" x="77.35" y="111.98" width="7.99" height="7.99" transform="translate(-58.18 91.49) rotate(-45)"/></g><g class="cls-8"><rect class="cls-9" x="114.98" y="68.26" width="26.42" height="26.42" transform="translate(-20.06 114.5) rotate(-45)"/></g><g class="cls-10"><rect class="cls-11" x="123.44" y="92.8" width="7.81" height="7.81" transform="translate(-31.08 118.37) rotate(-45)"/></g></g></g></svg>