<svg xmlns="http://www.w3.org/2000/svg" viewBox="0 0 113.41 147.42"><defs><style>.cls-1{fill:#fff;}</style></defs><title>download</title><g id="Capa_2" data-name="Capa 2"><g id="Capa_1-2" data-name="Capa 1"><path class="cls-1" d="M.06,86.55c0-18,.07-36-.06-54a10.58,10.58,0,0,1,3.41-8.39c7.2-6.93,14.25-14,21.24-21.17a9.07,9.07,0,0,1,7-3c23.33.08,46.66,0,70,.06,5.64,0,5.89.54,5.85,6.48-.09,14.16,0,28.33,0,42.49,0,1.17,0,2.34,0,3.5-.15,3.88-1,4.76-4.72,4.74s-4.49-.85-4.51-4.94c-.06-12.16,0-24.33,0-36.49,0-1.33,0-2.67-.07-4a2.29,2.29,0,0,0-2.55-2.43c-1,0-2-.05-3-.05q-27.5,0-55,0c-5.11,0-5.13,0-5.15,5.31,0,4.33.08,8.67,0,13-.1,3.83-.94,4.67-4.79,4.76-4.66.1-9.33,0-14,0-4.15.06-4.26.12-4.28,4.17-.06,8.5,0,17,0,25.5v69.49c0,1.33,0,2.66.05,4a2.22,2.22,0,0,0,2.5,2.44c1,0,2,0,3,0H92.38c.5,0,1,0,1.5,0,4-.13,4.27-.28,4.31-4.26.07-7.5,0-15,0-22.49,0-4.41,1-5.31,5.3-5.17,3.6.12,4.16.75,4.13,4.56-.07,10.33-.11,20.66-.19,31,0,5.28-.4,5.67-5.71,5.67q-47.74,0-95.48,0C.6,147.4.07,146.85.06,141Q0,113.8.06,86.55Z"/><rect class="cls-1" x="27.05" y="60.15" width="86.36" height="43.16" rx="6.56"/><path class="cls-1" d="M51.64,113H55.2c1.08,0,2.17-.05,3.25,0,.69,0,.92-.22.92-.93q0-11.67.13-23.35c0-5.59.12-11.18.15-16.78,0-.64.15-.87.84-.86q10.07,0,20.11,0c.58,0,.8.14.8.77q0,19.86,0,39.72c0,1.1,0,1.11,1.07,1.09l5.83-.11c.18,0,.42-.09.53.08s-.11.39-.24.54q-3.69,4.62-7.4,9.23c-3.41,4.22-6.84,8.43-10.25,12.66-.35.45-.55.68-1,.08q-9-10.8-18-21.56A.48.48,0,0,1,51.64,113Z"/></g></g></svg>