<svg xmlns="http://www.w3.org/2000/svg" xmlns:xlink="http://www.w3.org/1999/xlink" viewBox="0 0 193.61 193.65"><defs><style>.cls-1{fill:none;}.cls-2{clip-path:url(#clip-path);}.cls-3{fill:url(#Degradado_sin_nombre_15);}.cls-4{clip-path:url(#clip-path-2);}.cls-5{fill:url(#Degradado_sin_nombre_15-2);}.cls-6{clip-path:url(#clip-path-3);}.cls-7{fill:url(#Degradado_sin_nombre_15-3);}.cls-8{clip-path:url(#clip-path-4);}.cls-9{fill:url(#Degradado_sin_nombre_15-4);}.cls-10{clip-path:url(#clip-path-5);}.cls-11{fill:url(#Degradado_sin_nombre_15-5);}.cls-12{clip-path:url(#clip-path-6);}.cls-13{fill:url(#Degradado_sin_nombre_15-6);}.cls-14{clip-path:url(#clip-path-7);}.cls-15{fill:url(#Degradado_sin_nombre_15-7);}.cls-16{clip-path:url(#clip-path-8);}.cls-17{fill:url(#Degradado_sin_nombre_15-8);}.cls-18{clip-path:url(#clip-path-9);}.cls-19{fill:url(#Degradado_sin_nombre_15-9);}.cls-20{clip-path:url(#clip-path-10);}.cls-21{fill:url(#Degradado_sin_nombre_15-10);}.cls-22{clip-path:url(#clip-path-11);}.cls-23{fill:url(#Degradado_sin_nombre_15-11);}.cls-24{clip-path:url(#clip-path-12);}.cls-25{fill:url(#Degradado_sin_nombre_15-12);}.cls-26{clip-path:url(#clip-path-13);}.cls-27{fill:url(#Degradado_sin_nombre_15-13);}.cls-28{clip-path:url(#clip-path-14);}.cls-29{fill:url(#Degradado_sin_nombre_15-14);}</style><clipPath id="clip-path"><path class="cls-1" d="M102.41,112.33c-.35.8.12,1.41.83,1.83l10.1,6.06c1,.59,1.82.49,2.3-.26s.24-1.62-.78-2.23c-3.33-2-6.68-4-10-6a13.71,13.71,0,0,0-1.28-.57c-.38.37-.94.7-1.15,1.18"/></clipPath><linearGradient id="Degradado_sin_nombre_15" x1="-203.54" y1="722.36" x2="-201.77" y2="722.36" gradientTransform="matrix(0, -75.64, -75.64, 0, 54745.57, -15244.75)" gradientUnits="userSpaceOnUse"><stop offset="0" stop-color="#0097a6"/><stop offset="0.03" stop-color="#008da2"/><stop offset="0.11" stop-color="#007a9a"/><stop offset="0.18" stop-color="#006f96"/><stop offset="0.27" stop-color="#006b94"/><stop offset="0.52" stop-color="#563881"/><stop offset="0.78" stop-color="#97367d"/><stop offset="1" stop-color="#d3296b"/><stop offset="1" stop-color="#d3296b"/></linearGradient><clipPath id="clip-path-2"><path class="cls-1" d="M100.5,136.16l6.4,3.84-10.26,2.58,3.86-6.42m25.1-17.58.17.06V122h-2.23c.73-1.24,1.4-2.35,2.06-3.46M74.28,58.06H85.67c-.17.33-.27.58-.4.82-2.22,3.69-4.46,7.38-6.66,11.1a1.19,1.19,0,0,1-1.21.71c-1,0-2,0-3.12,0Zm-21.49,60.6L89.82,57l51,30.6-30.59,51c-1.42-.83-2.75-1.61-4.07-2.4-1.61-.95-3.2-1.92-4.81-2.88s-2-.77-3,.77c-1.75,2.89-3.48,5.79-5.3,8.81L52.79,118.66m67.52-71.38a5,5,0,0,0-.86,1.42c-.16.83.6,1.48,1.61,1.49,1.55,0,3.09,0,4.71,0v25l-12.52-7.51c0-.07,0-.14,0-.21.26,0,.52-.07.79-.07q1.29,0,2.58,0h2.25c1.37,0,2.08-.52,2.06-1.49s-.71-1.42-2-1.42h-3.08c-2.36,0-4.72,0-7.07,0a3.58,3.58,0,0,1-1.62-.45c-1.48-.82-2.9-1.72-4.35-2.59l.06-.26h15.89a4.66,4.66,0,0,0,1.06-.05,1.42,1.42,0,0,0,0-2.78,4.57,4.57,0,0,0-1-.06c-6.64,0-13.28,0-19.92,0a4.36,4.36,0,0,1-2.45-.67c-2-1.24-4-2.41-6-3.59-1.2-.72-1.78-.55-2.61.54a1.71,1.71,0,0,1-1.17.56c-3.36,0-6.73,0-10.09,0H73.44c-1.78,0-2.15.38-2.15,2.17V71.56c0,1.6.42,2,2,2,.91,0,1.81,0,2.71,0,.05,0,.11,0,.33.17l-9.7,16.15-.18-.07V50.2H113a2.82,2.82,0,0,0,1,0,3.08,3.08,0,0,0,1.42-.92,1.3,1.3,0,0,0-.46-1.71l-.26-.26H64.41a2.25,2.25,0,0,0-1,2.15q0,22.4,0,44.77A3.69,3.69,0,0,1,63,96q-6.5,10.92-13.06,21.82c-.9,1.51-.76,2,.77,3,4.06,2.44,8.13,4.86,12.18,7.3q14.68,8.81,29.33,17.63a2.87,2.87,0,0,0,2.37.42c5.33-1.38,10.68-2.7,16-4a2.58,2.58,0,0,0,1.69-1.3q4.53-7.61,9.12-15.16a1.49,1.49,0,0,1,1-.6c1,0,2,0,3.08,0h1.27c1.55,0,2-.44,2-2,0-3,0-5.93,0-8.9a3.17,3.17,0,0,1,.42-1.53q7.18-12,14.41-24c1-1.67.88-2.16-.81-3.18-4.36-2.62-8.73-5.25-13.11-7.83a1.68,1.68,0,0,1-.95-1.68c0-8.8,0-17.61,0-26.4a2.31,2.31,0,0,0-.93-2.18Z"/></clipPath><linearGradient id="Degradado_sin_nombre_15-2" x1="-203.54" y1="722.36" x2="-201.77" y2="722.36" gradientTransform="matrix(0, -75.64, -75.64, 0, 54733.28, -15241.45)" xlink:href="#Degradado_sin_nombre_15"/><clipPath id="clip-path-3"><path class="cls-1" d="M65.08,107.71a1.47,1.47,0,0,0,.52,2c.24.16.49.31.74.46l33.89,20.35c1.76,1.06,3.52,2.14,5.3,3.17,1.11.64,2.33,0,2.34-1.55a7.25,7.25,0,0,0-1.25-1.17q-17.41-10.52-34.86-21c-1.55-.93-3.09-1.87-4.66-2.76a1.65,1.65,0,0,0-.84-.25,1.36,1.36,0,0,0-1.18.7"/></clipPath><linearGradient id="Degradado_sin_nombre_15-3" x1="-203.54" y1="722.47" x2="-201.77" y2="722.47" gradientTransform="matrix(0, -75.64, -75.64, 0, 54731.72, -15228.82)" xlink:href="#Degradado_sin_nombre_15"/><clipPath id="clip-path-4"><path class="cls-1" d="M81.09,81.19a2.7,2.7,0,0,0,.3,1.58c.09.22.45.34.69.49l39.28,23.57c1,.6,1.89.48,2.37-.31s.17-1.55-.82-2.16c-1.48-.9-3-1.79-4.48-2.68L83.55,80.75c-.35-.21-.74-.36-1.31-.63-.4.35-1,.64-1.15,1.07"/></clipPath><linearGradient id="Degradado_sin_nombre_15-4" x1="-203.54" y1="722.3" x2="-201.77" y2="722.3" gradientTransform="matrix(0, -75.64, -75.64, 0, 54734.76, -15245.99)" xlink:href="#Degradado_sin_nombre_15"/><clipPath id="clip-path-5"><path class="cls-1" d="M86.44,93.47a2.45,2.45,0,0,0,.22,1.5c.09.25.47.41.75.58q15,9,30,18c1,.59,1.81.47,2.28-.3s.21-1.57-.75-2.17c-1.26-.78-2.54-1.53-3.81-2.29L89,93.12c-.4-.24-.85-.41-1.45-.69-.39.34-1,.61-1.12,1"/></clipPath><linearGradient id="Degradado_sin_nombre_15-5" x1="-203.54" y1="722.33" x2="-201.77" y2="722.33" gradientTransform="matrix(0, -75.64, -75.64, 0, 54737.91, -15244.16)" xlink:href="#Degradado_sin_nombre_15"/><clipPath id="clip-path-6"><path class="cls-1" d="M83.85,109.79a1.37,1.37,0,0,0,.17,1.85,4.08,4.08,0,0,0,.87.6l18.22,10.93c2.12,1.27,4.23,2.57,6.37,3.83,1.15.68,2.38.08,2.39-1.52a5.35,5.35,0,0,0-1.07-1.07Q98.61,117,86.39,109.72a4.61,4.61,0,0,0-.85-.45,1.59,1.59,0,0,0-.59-.12,1.29,1.29,0,0,0-1.1.64"/></clipPath><linearGradient id="Degradado_sin_nombre_15-6" x1="-203.54" y1="722.42" x2="-201.77" y2="722.42" gradientTransform="matrix(0, -75.64, -75.64, 0, 54738.67, -15236.78)" xlink:href="#Degradado_sin_nombre_15"/><clipPath id="clip-path-7"><path class="cls-1" d="M73,94.65c-.37.85.15,1.44.9,1.89l23.36,14c1,.62,1.88.52,2.37-.26s.22-1.59-.83-2.22l-23.28-14c-.35-.21-.74-.35-1.34-.63-.4.39-1,.71-1.18,1.18"/></clipPath><linearGradient id="Degradado_sin_nombre_15-7" x1="-203.54" y1="722.4" x2="-201.77" y2="722.4" gradientTransform="matrix(0, -75.64, -75.64, 0, 54726.48, -15233.24)" xlink:href="#Degradado_sin_nombre_15"/><clipPath id="clip-path-8"><path class="cls-1" d="M102.52,84.73a1.47,1.47,0,0,0,.52,2c.13.09.28.17.41.25l21.22,12.74a9.82,9.82,0,0,0,1.18.66c1.05.43,2.06-.21,2.05-1.69a6.06,6.06,0,0,0-1.14-1.12c-5.37-3.26-10.77-6.49-16.15-9.72-2-1.21-4-2.43-6.07-3.6a1.63,1.63,0,0,0-.84-.25,1.37,1.37,0,0,0-1.18.71"/></clipPath><linearGradient id="Degradado_sin_nombre_15-8" x1="-203.54" y1="722.24" x2="-201.77" y2="722.24" gradientTransform="matrix(0, -75.64, -75.64, 0, 54742.83, -15254.4)" xlink:href="#Degradado_sin_nombre_15"/><clipPath id="clip-path-9"><path class="cls-1" d="M61.05,114.43a1.36,1.36,0,0,0,.39,1.88,3.17,3.17,0,0,0,.49.32l14,8.41c.58.35,1.15.73,1.76,1,1,.46,2.06-.2,2.1-1.63a5.9,5.9,0,0,0-1.15-1.15q-6.57-4-13.17-7.92c-.83-.5-1.65-1-2.5-1.47a1.49,1.49,0,0,0-.72-.19,1.36,1.36,0,0,0-1.2.73"/></clipPath><linearGradient id="Degradado_sin_nombre_15-9" x1="-203.54" y1="722.54" x2="-201.77" y2="722.54" gradientTransform="matrix(0, -75.64, -75.64, 0, 54720.81, -15218.52)" xlink:href="#Degradado_sin_nombre_15"/><clipPath id="clip-path-10"><path class="cls-1" d="M115.35,81.51a1.46,1.46,0,0,0,.44,2,3.54,3.54,0,0,0,.41.26q5.25,3.17,10.52,6.31c1.24.75,2.47,1.51,3.73,2.22,1.09.62,2.32,0,2.29-1.59a6.58,6.58,0,0,0-1.19-1.11c-4.2-2.57-8.44-5.1-12.66-7.63a14.69,14.69,0,0,0-1.67-1,1.84,1.84,0,0,0-.7-.15,1.39,1.39,0,0,0-1.17.68"/></clipPath><linearGradient id="Degradado_sin_nombre_15-10" x1="-203.54" y1="722.18" x2="-201.77" y2="722.18" gradientTransform="matrix(0, -75.64, -75.64, 0, 54747.13, -15261.63)" xlink:href="#Degradado_sin_nombre_15"/><clipPath id="clip-path-11"><path class="cls-1" d="M85.15,74.25c-.5.76-.25,1.59.71,2.17l8,4.84c1.21.73,2.41,1.48,3.65,2.17s2.29,0,2.3-1.5A4.11,4.11,0,0,0,99,81c-.72-.53-1.52-.95-2.3-1.42l-9.35-5.6a2.13,2.13,0,0,0-1.06-.33,1.37,1.37,0,0,0-1.16.64"/></clipPath><linearGradient id="Degradado_sin_nombre_15-11" x1="-203.54" y1="722.29" x2="-201.77" y2="722.29" gradientTransform="matrix(0, -75.64, -75.64, 0, 54723.81, -15242.78)" xlink:href="#Degradado_sin_nombre_15"/><clipPath id="clip-path-12"><path class="cls-1" d="M99.2,72.27c-.31.76.14,1.35.82,1.76,3.42,2,6.84,4.11,10.27,6.15a1.44,1.44,0,0,0,2.18-.38,1.5,1.5,0,0,0-.69-2.12q-5.1-3.08-10.19-6.11c-.33-.19-.7-.29-1.28-.54-.38.41-.91.76-1.11,1.24"/></clipPath><linearGradient id="Degradado_sin_nombre_15-12" x1="-203.54" y1="722.22" x2="-201.77" y2="722.22" gradientTransform="matrix(0, -75.64, -75.64, 0, 54731.91, -15252.62)" xlink:href="#Degradado_sin_nombre_15"/><clipPath id="clip-path-13"><path class="cls-1" d="M69,101.41a1.32,1.32,0,0,0,.73,1.69q4.5,2.72,9,5.41A1.48,1.48,0,1,0,80.17,106q-4.36-2.66-8.75-5.27a13.91,13.91,0,0,0-1.3-.59c-.39.4-1,.76-1.17,1.27"/></clipPath><linearGradient id="Degradado_sin_nombre_15-13" x1="-203.54" y1="722.46" x2="-201.77" y2="722.46" gradientTransform="matrix(0, -75.64, -75.64, 0, 54719.5, -15225.39)" xlink:href="#Degradado_sin_nombre_15"/><clipPath id="clip-path-14"><path class="cls-1" d="M82.43,127.28c-.46.77-.18,1.54.81,2.14q4.33,2.63,8.68,5.21a10.77,10.77,0,0,0,1.22.55c.38-.3,1-.54,1.14-1a2.4,2.4,0,0,0-.17-1.52c-.08-.25-.45-.43-.73-.6q-4.34-2.61-8.69-5.19a2.2,2.2,0,0,0-1.09-.35,1.33,1.33,0,0,0-1.17.71"/></clipPath><linearGradient id="Degradado_sin_nombre_15-14" x1="-203.54" y1="722.5" x2="-201.77" y2="722.5" gradientTransform="matrix(0, -75.64, -75.64, 0, 54735.95, -15227.6)" xlink:href="#Degradado_sin_nombre_15"/></defs><title>fraudulent</title><g id="Capa_2" data-name="Capa 2"><g id="Capa_1-2" data-name="Capa 1"><g class="cls-2"><rect class="cls-3" x="100.61" y="107.72" width="16.99" height="16.52" transform="translate(-49.24 99.23) rotate(-40.71)"/></g><g class="cls-4"><rect class="cls-5" x="28.25" y="28.08" width="137.12" height="137.48" transform="translate(-39.73 86.57) rotate(-40.71)"/></g><g class="cls-6"><rect class="cls-7" x="60.98" y="96.23" width="50.58" height="48.9" transform="translate(-57.84 85.47) rotate(-40.71)"/></g><g class="cls-8"><rect class="cls-9" x="77.27" y="69.33" width="50.59" height="48.9" transform="translate(-36.35 89.59) rotate(-40.71)"/></g><g class="cls-10"><rect class="cls-11" x="83.31" y="84.01" width="39.82" height="38.53" transform="translate(-42.39 92.32) rotate(-40.71)"/></g><g class="cls-12"><rect class="cls-13" x="80.82" y="102.12" width="33.65" height="32.6" transform="matrix(0.76, -0.65, 0.65, 0.76, -53.61, 92.34)"/></g><g class="cls-14"><rect class="cls-15" x="70.17" y="86.65" width="32.39" height="31.36" transform="translate(-45.84 81.1) rotate(-40.71)"/></g><g class="cls-16"><rect class="cls-17" x="99.74" y="77.64" width="30.52" height="29.57" transform="translate(-32.46 97.38) rotate(-40.71)"/></g><g class="cls-18"><rect class="cls-19" x="58.76" y="109" width="22.89" height="22.22" transform="translate(-61.35 74.86) rotate(-40.71)"/></g><g class="cls-20"><rect class="cls-21" x="113.16" y="76.47" width="21.39" height="20.78" transform="matrix(0.76, -0.65, 0.65, 0.76, -26.68, 101.8)"/></g><g class="cls-22"><rect class="cls-23" x="83.07" y="69.92" width="18.33" height="17.83" transform="translate(-29.1 79.24) rotate(-40.71)"/></g><g class="cls-24"><rect class="cls-25" x="97.43" y="67.63" width="16.95" height="16.49" transform="translate(-23.87 87.43) rotate(-40.71)"/></g><g class="cls-26"><rect class="cls-27" x="67.27" y="97.06" width="15.46" height="15.06" transform="translate(-50.07 74.23) rotate(-40.71)"/></g><g class="cls-28"><rect class="cls-29" x="80.67" y="123.54" width="15.08" height="14.67" transform="translate(-64.02 89.2) rotate(-40.71)"/></g></g></g></svg>