<svg xmlns="http://www.w3.org/2000/svg" xmlns:xlink="http://www.w3.org/1999/xlink" viewBox="0 0 208.04 208.04"><defs><style>.cls-1{fill:none;}.cls-2{clip-path:url(#clip-path);}.cls-3{fill:url(#Degradado_sin_nombre_15);}.cls-4{clip-path:url(#clip-path-2);}.cls-5{fill:url(#Degradado_sin_nombre_15-2);}</style><clipPath id="clip-path"><path class="cls-1" d="M111.15,141.49a1,1,0,0,1,.87-.33c.86.16,1.71.43,2.74.69-1.27,2.14-3.5,1.65-5.47,2.52.74-1.17,1.26-2.06,1.86-2.88m-53.73-23.6H80c1.59,9.27,3.73,18.37,9.38,26.26-13.26-2.44-26.54-13-32-26.26m37.65,25.55A22.64,22.64,0,0,1,90,135.93a68.33,68.33,0,0,1-5.1-17.49,3.6,3.6,0,0,1,0-.58h29.33L113,119.1a2.37,2.37,0,0,0-.39,3.21c.41.73.2,3.55-.37,4.17a1.89,1.89,0,0,1-.87.36c-2.35.58-2.72,1-2.72,3.49,0,1.4-.09,2.81,0,4.2a6.05,6.05,0,0,1-1.19,4.24,36.29,36.29,0,0,1-3.74,4.69,6.17,6.17,0,0,1-4.23,2,6.66,6.66,0,0,1-4.39-2m31.93-24a15,15,0,0,1,1.39-.56,2.55,2.55,0,0,0,1.78-2c.22-1,.54-1.94.73-2.92a.78.78,0,0,1,.93-.76c1.58,0,3.16,0,4.86,0,.3,1.18.65,2.34.9,3.51a2.65,2.65,0,0,0,1.88,2.15,7.64,7.64,0,0,1,1.19.49,2.57,2.57,0,0,0,2.74-.19c1-.64,2-1.22,3.22-1.93,1.17,1.2,2.32,2.34,3.4,3.54a1.19,1.19,0,0,1,.09,1.06c-.46.93-1,1.81-1.57,2.69a2.51,2.51,0,0,0-.16,2.47,6.71,6.71,0,0,0,.68,1.57,4.77,4.77,0,0,0,1.68,1.49c1,.43,2.15.55,3.2.89a1.08,1.08,0,0,1,.64.76c.06,1.61,0,3.22,0,5-1.23.32-2.42.66-3.63.93a2.61,2.61,0,0,0-2.06,1.83c-.15.44-.33.87-.52,1.3a2.58,2.58,0,0,0,.16,2.56c.66,1.07,1.28,2.15,1.95,3.27-1.22,1.22-2.37,2.4-3.57,3.53a1,1,0,0,1-.9.07c-.95-.5-1.86-1.07-2.79-1.63a2.46,2.46,0,0,0-2.46-.16c-.49.22-1,.43-1.49.61a2.45,2.45,0,0,0-1.67,1.94c-.2.87-.5,1.73-.63,2.61s-.57,1.16-1.45,1.09a21.78,21.78,0,0,0-3.33,0c-.94.08-1.27-.31-1.42-1.15a10.56,10.56,0,0,0-.71-2.69,5.76,5.76,0,0,0-1.55-1.76,6.11,6.11,0,0,0-1.47-.64,2.5,2.5,0,0,0-2.56.16c-.21.14-.43.27-.64.39-.87.48-1.81,1.42-2.61,1.31s-1.46-1.26-2.2-1.93-1.23-1.08-1.85-1.62c.75-1.26,1.36-2.32,2-3.35a2.54,2.54,0,0,0,.19-2.65,7.84,7.84,0,0,0-.63-1.47A5.2,5.2,0,0,0,117,137.7a28.51,28.51,0,0,0-3.76-1c0-1.7,0-3.42,0-5.13,0-.22.4-.53.68-.62,1-.31,2-.56,3-.79a2.52,2.52,0,0,0,1.91-1.72,13.91,13.91,0,0,1,.56-1.39,2.48,2.48,0,0,0-.18-2.56c-.64-1-1.25-2.08-1.95-3.23,1.22-1.22,2.41-2.45,3.66-3.62a1,1,0,0,1,.91,0c.91.48,1.79,1,2.68,1.59a2.58,2.58,0,0,0,1.38.42,2.54,2.54,0,0,0,1.08-.25m-43-7.5a124.17,124.17,0,0,1-.41-19.57c.14-2.21.34-4.42.52-6.67h30.55c1.21,4.4,1.12,23.89-.14,27.53h-1c-9.37,0-18.74,0-28.1,0h0c-1,0-1.27-.34-1.36-1.32m-28.68.33a45.82,45.82,0,0,1,0-25.69c.16-.53.25-1,1-1,5.81,0,11.63,0,17.45,0H78.9c.13,0,.27,0,.56.07a132.53,132.53,0,0,0,0,27.52H78.35c-7.25,0-14.5,0-21.75,0h0a1.13,1.13,0,0,1-1.31-1m86.94-26.65a1.2,1.2,0,0,1,1.4,1,45.61,45.61,0,0,1-.39,26.61,5.87,5.87,0,0,1-1.09,1.49l-.33-.17c-.32-1.28-.63-2.55-1-3.83a2.45,2.45,0,0,0-2.75-2.17h-8.4a2.38,2.38,0,0,0-2.69,2.1c-.35,1.31-.68,2.63-1,4-1.13-.67-2.2-1.25-3.21-1.92a2.86,2.86,0,0,0-3.43-.16,122.74,122.74,0,0,0,.05-27c.4,0,.74-.06,1.09-.06h9.69q6,0,12.06,0M118.59,80c-1.13-7-2.81-13.78-6-20.12-.91-1.77-2-3.44-3-5.15,10.8.53,28.32,14.91,31.83,26.25-.35,0-.69.06-1,.06h-5.69q-7.39,0-14.78,0h0c-.79,0-1.13-.17-1.27-1.06M67.9,66A45.8,45.8,0,0,1,89.52,54.54C83.77,62.62,81.63,71.66,80,81H57.36A45.19,45.19,0,0,1,67.9,66m18,9.08c1.26-5.43,2.86-10.76,5.86-15.5a21.85,21.85,0,0,1,4-4.71,5.1,5.1,0,0,1,7.24,0,18.44,18.44,0,0,1,3.74,4.24c4.19,6.64,6,14.13,7.32,21.83H84.72c.4-2,.74-3.94,1.19-5.85M96,48.84c-1.91.28-3.83.51-5.72.84A50.64,50.64,0,0,0,50.15,88.1c-.52,2.38-.76,4.82-1.13,7.22,0,.25-.12.48-.18.72v6.68c.27,1.92.49,3.84.83,5.74a50.64,50.64,0,0,0,39,40.38,49.66,49.66,0,0,0,22.84-.35,1.47,1.47,0,0,1,1.67.43c1.88,2,3.84,3.89,5.78,5.81,1.19,1.18,2,1.28,3.46.43l3.53-2.09c.33,1.34.64,2.58,1,3.81.46,1.79,1.12,2.31,3,2.31h8.19a2.41,2.41,0,0,0,2.76-2.14c.33-1.28.64-2.57,1-4l3.48,2.07c1.5.89,2.33.8,3.55-.42q2.91-2.88,5.79-5.79c1.28-1.29,1.38-2.09.47-3.63l-2.06-3.45,3.91-1c1.66-.42,2.22-1.12,2.22-2.81q0-4.2,0-8.4a2.34,2.34,0,0,0-2-2.63c-1.31-.35-2.63-.68-4.1-1,.66-1.11,1.27-2.15,1.89-3.18,1.14-1.9,1-2.53-.54-4.13-1.83-1.83-3.63-3.68-5.5-5.47a1.41,1.41,0,0,1-.47-1.57,48.16,48.16,0,0,0-2.16-31c-7.37-17.38-20.5-27.76-39.11-31.13-1.47-.27-3-.42-4.46-.62Z"/></clipPath><linearGradient id="Degradado_sin_nombre_15" x1="-389.41" y1="319.96" x2="-387.61" y2="319.96" gradientTransform="matrix(0, -81.31, -81.31, 0, 26118.91, -31491.61)" gradientUnits="userSpaceOnUse"><stop offset="0" stop-color="#0097a6"/><stop offset="0.03" stop-color="#008da2"/><stop offset="0.11" stop-color="#007a9a"/><stop offset="0.18" stop-color="#006f96"/><stop offset="0.27" stop-color="#006b94"/><stop offset="0.52" stop-color="#563881"/><stop offset="0.78" stop-color="#97367d"/><stop offset="1" stop-color="#d3296b"/><stop offset="1" stop-color="#d3296b"/></linearGradient><clipPath id="clip-path-2"><path class="cls-1" d="M127,133.89A6.83,6.83,0,0,1,134,127a6.9,6.9,0,0,1,6.86,6.84,7,7,0,0,1-6.9,6.94h0a6.89,6.89,0,0,1-6.88-6.92m-4.63,0A11.5,11.5,0,1,0,134,122.4h-.1a11.58,11.58,0,0,0-11.46,11.48"/></clipPath><linearGradient id="Degradado_sin_nombre_15-2" x1="-389.41" y1="319.92" x2="-387.61" y2="319.92" gradientTransform="matrix(0, -81.31, -81.31, 0, 26145.13, -31502.8)" xlink:href="#Degradado_sin_nombre_15"/></defs><title>geostatistics</title><g id="Capa_2" data-name="Capa 2"><g id="Capa_1-2" data-name="Capa 1"><g class="cls-2"><rect class="cls-3" x="28.26" y="28.26" width="151.52" height="151.52" transform="translate(-38.8 68.76) rotate(-31.13)"/></g><g class="cls-4"><rect class="cls-5" x="118.07" y="118.1" width="31.66" height="31.65" transform="translate(-49.95 88.51) rotate(-31.13)"/></g></g></g></svg>