<svg xmlns="http://www.w3.org/2000/svg" xmlns:xlink="http://www.w3.org/1999/xlink" viewBox="0 0 217.36 217.36"><defs><style>.cls-1{fill:none;}.cls-2{clip-path:url(#clip-path);}.cls-3{fill:url(#Degradado_sin_nombre_15);}.cls-4{clip-path:url(#clip-path-2);}.cls-5{fill:url(#Degradado_sin_nombre_15-2);}.cls-6{clip-path:url(#clip-path-3);}.cls-7{fill:url(#Degradado_sin_nombre_15-3);}</style><clipPath id="clip-path"><path class="cls-1" d="M65.88,155.67a6.35,6.35,0,0,1-3.76-5.95,5.85,5.85,0,0,1,1.61-4.1q6-6.09,12.1-12.12a1.32,1.32,0,0,1,.25-.16l9.11,9.12c-.74.65-1.53,1.29-2.25,2-3.36,3.32-6.68,6.69-10,10a6.12,6.12,0,0,1-4.36,1.77,6.5,6.5,0,0,1-2.65-.56m14.94-26.92,7.87-7.9,8.7,8.7-8,7.87-8.6-8.67m41.35,2.42a35,35,0,1,1,35-35,35.07,35.07,0,0,1-35,35h0m-6.51-75.85A41.62,41.62,0,0,0,80.88,94,40.22,40.22,0,0,0,85,114.08a1.13,1.13,0,0,1-.26,1.61c-1.11,1-2.14,2.12-3.21,3.19-7.28,7.28-14.6,14.53-21.84,21.86a12.63,12.63,0,0,0,1.67,19.58A15.85,15.85,0,0,0,67,162.54H70.1c.09,0,.17-.14.26-.15A13.1,13.1,0,0,0,78,158.31q12.31-12.36,24.65-24.7c.57-.58,1-.5,1.63-.24a72.79,72.79,0,0,0,7.47,2.75,41.38,41.38,0,0,0,50.65-30.49c.48-2.11.73-4.27,1.09-6.41V93.33c-.24-1.65-.42-3.33-.74-5a41.44,41.44,0,0,0-47.1-33"/></clipPath><linearGradient id="Degradado_sin_nombre_15" x1="-190.28" y1="467.59" x2="-188.04" y2="467.59" gradientTransform="matrix(0, -72.73, -72.73, 0, 34115.22, -13636.4)" gradientUnits="userSpaceOnUse"><stop offset="0" stop-color="#0097a6"/><stop offset="0.03" stop-color="#008da2"/><stop offset="0.11" stop-color="#007a9a"/><stop offset="0.18" stop-color="#006f96"/><stop offset="0.27" stop-color="#006b94"/><stop offset="0.52" stop-color="#563881"/><stop offset="0.78" stop-color="#97367d"/><stop offset="1" stop-color="#d3296b"/><stop offset="1" stop-color="#d3296b"/></linearGradient><clipPath id="clip-path-2"><path class="cls-1" d="M137.83,92l5.27,4.09-5.27,4.11Zm-36.45,4.1,5.34-4.18v8.31l-5.34-4.13m20.84,9.47a9.46,9.46,0,1,1,9.51-9.47,9.47,9.47,0,0,1-9.51,9.47h0M110.9,82.61a46.81,46.81,0,0,0-15.81,10.9c-1.71,1.76-1.68,3.36,0,5.13a48.11,48.11,0,0,0,9.74,7.79c5.35,3.27,11.06,5.4,17.42,5.43l.06.29c2.71-.51,5.48-.81,8.11-1.58,7.27-2.11,13.28-6.34,18.62-11.6,2.07-2,2.09-3.72,0-5.77A49,49,0,0,0,136,83.67a31,31,0,0,0-13.76-3.39,29.55,29.55,0,0,0-11.34,2.33"/></clipPath><linearGradient id="Degradado_sin_nombre_15-2" x1="-190.28" y1="467.48" x2="-188.04" y2="467.48" gradientTransform="matrix(0, -72.73, -72.73, 0, 34120.99, -13649.61)" xlink:href="#Degradado_sin_nombre_15"/><clipPath id="clip-path-3"><path class="cls-1" d="M119.13,96a3.14,3.14,0,1,0,3.17-3.11h0A3.15,3.15,0,0,0,119.13,96"/></clipPath><linearGradient id="Degradado_sin_nombre_15-3" x1="-190.28" y1="467.48" x2="-188.04" y2="467.48" gradientTransform="matrix(0, -72.73, -72.73, 0, 34120.88, -13649.7)" xlink:href="#Degradado_sin_nombre_15"/></defs><title>imagerecog</title><g id="Capa_2" data-name="Capa 2"><g id="Capa_1-2" data-name="Capa 1"><g class="cls-2"><rect class="cls-3" x="31.83" y="31.83" width="153.7" height="153.7" transform="translate(-45.02 108.68) rotate(-45)"/></g><g class="cls-4"><rect class="cls-5" x="90.57" y="64.52" width="63.39" height="63.39" transform="translate(-32.22 114.64) rotate(-45)"/></g><g class="cls-6"><rect class="cls-7" x="117.81" y="91.62" width="8.91" height="8.91" transform="translate(-32.13 114.6) rotate(-45)"/></g></g></g></svg>