<svg xmlns="http://www.w3.org/2000/svg" viewBox="0 0 400 175"><defs><style>.cls-1{fill:none;}.cls-2{fill:#0073b8;fill-rule:evenodd;}</style></defs><title>intelLogo</title><g id="Capa_2" data-name="Capa 2"><g id="Capa_1-2" data-name="Capa 1"><rect class="cls-1" width="400" height="175"/><path class="cls-2" d="M62.48,99.11v6.25c0,11,4.87,20.84,9.83,27.51,5.61,7.56,13.09,12,21.66,16.88,6.76,3.83,20.42,8.08,29.64,9.72A201.1,201.1,0,0,0,160.13,163h6.74c42,0,84.73-11,112.22-24V121.19c-7.44,3.53-16.6,8.2-25.18,10.58-1.83.51-4.7,1.63-6.62,2.27-2.35.78-4.66,1.29-7,2.11a128.24,128.24,0,0,1-14.39,3.68c-5,1-9.76,2.18-15,3.13s-10.22,1.49-15.83,2.38c-5.19.82-11.34,1.1-16.88,1.44-5.78.36-11.79.59-18.05.59h-1.3c-22.29,0-43.55-3.15-58.43-9.84-14.32-6.43-27.7-18.35-27.7-37.45V98.32c0-9,3.07-15.88,6-22.39a54.7,54.7,0,0,1,5.48-9c1.14-1.53,2.07-2.65,3.26-4.1s2.74-2.71,3.57-3.83V52.8c-3.47,2.08-7.11,6.19-10,8.94-3.34,3.12-5.81,6.61-8.56,10.28-4.09,5.46-9.88,18.15-9.88,27.09Z"/><path class="cls-2" d="M323.46,65.3V59.64c-.07-.11-1-6.34-1.17-7.16a33.86,33.86,0,0,0-2-6.39,41.08,41.08,0,0,0-6.53-10.74c-5.43-6.4-11.9-11-20-15.06C278.89,12.91,256.28,8.44,233.2,8.44h-1.95c-23.81,0-43.5,3.56-62.11,8.29-4.92,1.25-8.92,2.54-13.5,3.9a123.18,123.18,0,0,0-12.77,4.55c-4.06,1.81-8.12,3.37-12.1,5.15-2.11.93-10.21,5.39-11.52,5.66v4.69c1.79-.37,8.4-3.65,10.94-4.62,3.52-1.35,7.95-3.35,11.5-4.33,1.61-.44,4.27-1.34,5.86-2,1.94-.74,4-1.19,6-1.81,3.93-1.19,8.31-2.52,12.47-3.45,8.94-2,16.83-3.66,26.61-5.21a207.16,207.16,0,0,1,29.45-2.65h9.79c19,0,39.68,3.93,51.9,10,7.42,3.7,12.4,6.82,17.52,12.6,3.85,4.36,8.65,13,8.65,20.75v3.32c0,8.11-4.69,16.84-8.61,21.57a53.07,53.07,0,0,1-7.64,7.79c-1.42,1.15-8,5.87-9.63,6.2v12.9c3.07-.23,12.29-5.57,14.67-7.15a59.06,59.06,0,0,0,11.61-10.08,57,57,0,0,0,8.6-12.8,53.48,53.48,0,0,0,2.88-7.57c.36-1.1,1.58-8.87,1.61-8.91Z"/><path class="cls-2" d="M206.24,87v2.35c0,13.43,9.17,23.25,24.14,23.25h2.82a28.69,28.69,0,0,0,11-2.23c3.53-1.34,5.33-3.64,8-5.25l-8.53-7.18c-1.69,2.26-6.35,4.5-10.66,4.5h-2.4c-5.66,0-10.87-4.33-10.87-9.19V91.88h33.93V86.6a25.58,25.58,0,0,0-5.5-15.77c-2.87-3.4-8.69-7.29-15.16-7.29h-4.14c-6.84,0-13,3.86-16.37,7.18s-6.24,9.85-6.24,16.27Zm13.48-4.69v1.37h20.44v-1a9.26,9.26,0,0,0-9.57-9.18h-1.08c-5,0-9.79,4.39-9.79,8.79Z"/><path class="cls-2" d="M126,111.81h13.26V74.1h12c2.64,0,4.79,1.83,4.79,4.1v33.61h13.48V78.39c0-7.92-6-14.07-14.79-14.07H126v47.49Z"/><path class="cls-2" d="M179.27,97.74c0,8,5.81,14.07,14.57,14.07H203V101.65h-6.74c-2,0-3.48-2.08-3.48-3.91V74.1H203V64.32H192.75V51.23H179.27V97.74Z"/><path class="cls-2" d="M261.48,100.28c0,3.24,2.18,6.18,4.07,7.87a13.21,13.21,0,0,0,4.1,2.18c2.08.74,3.15.64,5.31,1.09V44.59H261.48v55.69Z"/><path class="cls-2" d="M100.27,75.46l0,23.65c0,8,5.23,13.11,13.7,13.28V64.32H100.59l-.32,11.13Z"/><polygon class="cls-2" points="100.54 57.68 114.02 57.68 114.02 46.15 100.54 46.15 100.54 57.68 100.54 57.68"/><path class="cls-2" d="M289.51,44.54a6.09,6.09,0,0,1,2.65.62,4.72,4.72,0,0,1,2,1.8,4.55,4.55,0,0,1,.72,2.43,4.47,4.47,0,0,1-.71,2.41,4.83,4.83,0,0,1-2,1.8,6,6,0,0,1-5.38,0,4.92,4.92,0,0,1-2-1.8,4.47,4.47,0,0,1-.71-2.41,4.55,4.55,0,0,1,.72-2.43,4.83,4.83,0,0,1,2-1.8,6.13,6.13,0,0,1,2.66-.62Zm0,.8a5.16,5.16,0,0,0-2.22.52,4,4,0,0,0-1.68,1.5,3.67,3.67,0,0,0,0,4,4.06,4.06,0,0,0,1.67,1.5,5,5,0,0,0,4.48,0,4,4,0,0,0,1.66-1.5,3.74,3.74,0,0,0,.6-2,3.83,3.83,0,0,0-.6-2,4,4,0,0,0-1.69-1.5,5.15,5.15,0,0,0-2.21-.52Zm-2.37,6.73V46.85h2a5.79,5.79,0,0,1,1.49.14,1.52,1.52,0,0,1,.73.51,1.27,1.27,0,0,1,.27.77,1.29,1.29,0,0,1-.46,1,1.87,1.87,0,0,1-1.2.48,1.61,1.61,0,0,1,.49.27,5.86,5.86,0,0,1,.86,1l.71,1h-1.15l-.51-.82a4.44,4.44,0,0,0-1-1.22,1.3,1.3,0,0,0-.75-.18h-.55v2.22Zm.94-2.94h1.14a2,2,0,0,0,1.11-.22.66.66,0,0,0,.3-.57.64.64,0,0,0-.15-.42.91.91,0,0,0-.39-.27,3.38,3.38,0,0,0-.95-.09h-1.06v1.57Z"/></g></g></svg>