<svg xmlns="http://www.w3.org/2000/svg" xmlns:xlink="http://www.w3.org/1999/xlink" viewBox="0 0 126.7 125.73"><defs><style>.cls-1{fill:url(#Degradado_sin_nombre_96);}.cls-2{fill:#bf3276;}.cls-3{fill:url(#Degradado_sin_nombre_28);}</style><linearGradient id="Degradado_sin_nombre_96" x1="104.44" y1="40.64" x2="190.48" y2="40.64" gradientUnits="userSpaceOnUse"><stop offset="0" stop-color="#a43b7d"/><stop offset="0.29" stop-color="#9d3c7f"/><stop offset="0.69" stop-color="#8b3e85"/><stop offset="1" stop-color="#78418b"/></linearGradient><linearGradient id="Degradado_sin_nombre_28" x1="59.7" y1="60.11" x2="80.54" y2="72.15" gradientUnits="userSpaceOnUse"><stop offset="0" stop-color="#bf3276"/><stop offset="1" stop-color="#a43b7d"/></linearGradient></defs><title>isotipo_lytica</title><g id="Capa_2" data-name="Capa 2"><g id="lytica_vectorizado"><path class="cls-1" d="M126.7,49.45V79.52c0,1.69,0,1.72-1.69,1.73-4.83,0-9.67,0-14.5,0-1.2,0-1.49-.37-1.49-1.54q.06-28.9,0-57.79c0-2.69-1.26-4-4-4.08-1.87-.06-3.74,0-5.61,0-.79,0-1.13-.31-1.12-1.11.08-5.23-.08-10.45.14-15.67,0-.85.41-1,1-1a95,95,0,0,1,10.4.24A23.11,23.11,0,0,1,117.36,2a13.8,13.8,0,0,1,8.38,10,35.35,35.35,0,0,1,1,8.81Q126.72,35.13,126.7,49.45Z"/><path class="cls-2" d="M0,77.11V46.34c0-1.7,0-1.7,1.69-1.7H16c1.7,0,1.71,0,1.71,1.69v57a8.27,8.27,0,0,0,.16,2.1,2.94,2.94,0,0,0,2.67,2.41,27.37,27.37,0,0,0,6.07.13c1.5-.21,1.84.11,1.83,1.59-.06,5-.14,10-.18,15,0,.82-.28,1.24-1.14,1.22-4.25-.1-8.51.28-12.72-.49-3.57-.65-7-1.69-9.64-4.36a16.32,16.32,0,0,1-4.24-8.94,43.16,43.16,0,0,1-.48-8Q0,90.51,0,77.11Z"/><path class="cls-3" d="M77.5,72.61c-3.22,0-3.18,0-4.46-2.94-1.57-3.56-3.23-7.09-4.85-10.64-.09-.2-.14-.48-.43-.48s-.37.25-.46.47c-1.46,3.18-3,6.33-4.36,9.57-1.65,4-1.57,4-5.8,4-2.64,0-2.89.39-1.49-2.48q4.41-9,8.73-18.11a1.3,1.3,0,0,1,1.43-.87c1.28.05,2.57,0,3.84-.07a1.28,1.28,0,0,1,1.41.78C74,58,77,64.09,79.84,70.22c1.12,2.36,1,2.39-1.63,2.39Z"/></g></g></svg>