<svg xmlns="http://www.w3.org/2000/svg" viewBox="0 0 400 175"><defs><style>.cls-1{fill:none;}.cls-2{fill:#c0181a;}.cls-3{fill:#75160f;}</style></defs><title>mcafeeLogo</title><g id="Capa_2" data-name="Capa 2"><g id="Capa_1-2" data-name="Capa 1"><rect class="cls-1" width="400" height="175"/><path class="cls-2" d="M378.85,64.53h5v1h-2.1V71h-1V65.58h-2.09v-1Z"/><path class="cls-2" d="M384.71,64.53h1.47l1.68,5h0l1.67-5H391v6.29h-.63V66h0l-1.68,4.82h-.83L385.76,66h0v4.82h-1.05Z"/><path class="cls-2" d="M199.9,100l-10.06-5.87-.63,1c-2.31,3.56-5.45,5.44-9.22,5.44a11.53,11.53,0,1,1,0-23c4,0,6.91,1.68,9.22,5.45l.84,1,10-5.87-.83-1.25C194.45,70,188.16,66.63,180.2,66.63c-15.3,0-23.47,11.52-23.47,22.42s8.17,22.63,23.47,22.63a22.72,22.72,0,0,0,19.07-10.27Z"/><path class="cls-2" d="M199.48,111.47h13.83l4.19-10.27h20.74l4.19,10.27h13.83L231.12,51.75H218.75l3.36,8-22.63,51.76m28.28-36.25,5.66,14H222.11Z"/><path class="cls-2" d="M261.71,111.47h12.15V84.65h8V73.33h-8V68.1a4.34,4.34,0,0,1,4.4-4.61,7.38,7.38,0,0,1,3.36.62l1.25.63,5-10.89-1.46-.63A24.72,24.72,0,0,0,278.89,52c-5.44,0-10.05,1.89-13,5.24a16.94,16.94,0,0,0-4.19,11.52v4.82h-5.45V84.86h5.24Z"/><polygon class="cls-2" points="99.31 51.33 99.31 111.47 112.52 111.47 112.52 77.11 125.3 86.53 138.08 77.11 138.08 111.47 151.28 111.47 151.28 51.33 125.3 71.03 99.31 51.33"/><path class="cls-2" d="M308.86,66.63c-15.3,0-23.47,11.52-23.47,22.42s8.17,22.42,23.47,22.42h0c6.91,0,13.62-3.35,18.65-9L317.66,97a12.74,12.74,0,0,1-9,4c-5,0-9.43-3.35-10.48-7.54h32.9V90.52C331.07,74,318.08,66.63,308.86,66.63ZM298.38,83.39a9.68,9.68,0,0,1,9.43-6.49,10.42,10.42,0,0,1,9.85,6.49Z"/><path class="cls-2" d="M358.31,66.63c-15.3,0-23.47,11.52-23.47,22.42s8.17,22.42,23.47,22.42h0c6.92,0,13.62-3.35,18.65-9L367.11,97a12.72,12.72,0,0,1-9,4c-5,0-9.43-3.35-10.48-7.54h32.9V90.52C380.52,74,367.53,66.63,358.31,66.63Zm-10.48,17a9.68,9.68,0,0,1,9.43-6.49,10.41,10.41,0,0,1,9.85,6.49Z"/><polygon class="cls-2" points="22.41 102.46 22.41 72.08 41.48 81.09 41.48 66.42 9 51.33 9 111.05 41.48 126.14 41.48 111.47 22.41 102.46"/><polygon class="cls-3" points="60.76 102.46 60.76 72.08 41.48 81.09 41.48 66.42 73.96 51.33 73.96 111.05 41.48 126.14 41.48 111.47 60.76 102.46"/></g></g></svg>