<svg xmlns="http://www.w3.org/2000/svg" xmlns:xlink="http://www.w3.org/1999/xlink" viewBox="0 0 144.69 220.98"><defs><style>.cls-1{fill:none;}.cls-2{clip-path:url(#clip-path);}.cls-3{fill:url(#Degradado_sin_nombre_15);}.cls-4{clip-path:url(#clip-path-2);}.cls-5{fill:url(#Degradado_sin_nombre_15-2);}.cls-6{clip-path:url(#clip-path-3);}.cls-7{fill:url(#Degradado_sin_nombre_15-3);}.cls-8{clip-path:url(#clip-path-4);}.cls-9{fill:url(#Degradado_sin_nombre_15-4);}.cls-10{clip-path:url(#clip-path-5);}.cls-11{fill:url(#Degradado_sin_nombre_15-5);}.cls-12{clip-path:url(#clip-path-6);}.cls-13{fill:url(#Degradado_sin_nombre_15-6);}.cls-14{clip-path:url(#clip-path-7);}.cls-15{fill:url(#Degradado_sin_nombre_15-7);}.cls-16{clip-path:url(#clip-path-8);}.cls-17{fill:url(#Degradado_sin_nombre_15-8);}.cls-18{clip-path:url(#clip-path-9);}.cls-19{fill:url(#Degradado_sin_nombre_15-9);}.cls-20{clip-path:url(#clip-path-10);}.cls-21{fill:url(#Degradado_sin_nombre_15-10);}.cls-22{clip-path:url(#clip-path-11);}.cls-23{fill:url(#Degradado_sin_nombre_15-11);}.cls-24{clip-path:url(#clip-path-12);}.cls-25{fill:url(#Degradado_sin_nombre_15-12);}.cls-26{clip-path:url(#clip-path-13);}.cls-27{fill:url(#Degradado_sin_nombre_15-13);}.cls-28{clip-path:url(#clip-path-14);}.cls-29{fill:url(#Degradado_sin_nombre_15-14);}.cls-30{clip-path:url(#clip-path-15);}.cls-31{fill:url(#Degradado_sin_nombre_15-15);}.cls-32{clip-path:url(#clip-path-16);}.cls-33{fill:url(#Degradado_sin_nombre_15-16);}.cls-34{clip-path:url(#clip-path-17);}.cls-35{fill:url(#Degradado_sin_nombre_15-17);}.cls-36{clip-path:url(#clip-path-18);}.cls-37{fill:url(#Degradado_sin_nombre_15-18);}.cls-38{clip-path:url(#clip-path-19);}.cls-39{fill:url(#Degradado_sin_nombre_15-19);}</style><clipPath id="clip-path"><path class="cls-1" d="M66.79,40.44A9.58,9.58,0,0,0,65.2,43c-.55,2.29-.86,4.65-1.19,7a1.58,1.58,0,0,1-1.2,1.47c-1.57.55-3.07,1.3-4.64,1.85a2,2,0,0,1-1.56-.13c-2.08-1.4-4.08-2.91-6.14-4.34-1.41-1-2.36-.9-3.59.31-2.06,2-4.09,4-6.12,6.1-1.32,1.35-1.41,2.29-.32,3.82,1.41,2,2.9,4,4.26,6a2,2,0,0,1,.12,1.57c-.56,1.57-1.32,3.07-1.86,4.64a1.55,1.55,0,0,1-1.46,1.19c-2.34.33-4.67.74-7,1.14-1.85.31-2.53,1.07-2.55,2.86q0,3.14,0,6.27c0,1.78.91,2.82,2.38,2.81s2.35-1.06,2.36-2.84c0-1.52,0-3.05,0-4.62,2.68-.45,5.24-.91,7.79-1.31A3,3,0,0,0,47,74.46a53.45,53.45,0,0,1,2.78-6.79,3.27,3.27,0,0,0-.21-4c-1.51-2-2.92-4.05-4.29-6l3.8-4c2.13,1.53,4.26,3,6.34,4.55a3,3,0,0,0,3.47.16,38.61,38.61,0,0,1,6.52-2.73,3.67,3.67,0,0,0,3-3.55c.27-2.33.76-4.63,1.15-6.9H75.1c.45,2.67.93,5.27,1.34,7.87a2.85,2.85,0,0,0,2.21,2.37,68.67,68.67,0,0,1,7,2.9,3.17,3.17,0,0,0,3.72-.22c2-1.52,4.12-3,6.14-4.41l3.9,3.9c-1.41,2-2.78,4-4.28,5.95a3.31,3.31,0,0,0-.26,4.07,33.13,33.13,0,0,1,2.66,6.4A3.44,3.44,0,0,0,100.81,77c2.38.3,4.75.76,7.23,1.17,0,1.65,0,3.22,0,4.79s.95,2.69,2.37,2.69,2.35-1,2.37-2.68c0-2,0-4.09,0-6.14s-.62-2.81-2.71-3.15c-2.33-.39-4.68-.72-7-1.2a2.21,2.21,0,0,1-1.28-1.13c-.7-1.46-1.2-3-1.91-4.47a1.52,1.52,0,0,1,.17-1.85c1.47-2,2.9-4,4.31-6a2.41,2.41,0,0,0-.31-3.6c-2-2.06-4-4.09-6.1-6.12-1.38-1.35-2.31-1.4-3.94-.24-2,1.4-3.9,2.84-5.91,4.18a2,2,0,0,1-1.56.14c-1.61-.58-3.2-1.24-4.74-2a2.09,2.09,0,0,1-1-1.22c-.45-2.22-.84-4.47-1.14-6.72a3.79,3.79,0,0,0-1.71-3Z"/></clipPath><linearGradient id="Degradado_sin_nombre_15" x1="-235.17" y1="321.67" x2="-232.42" y2="321.67" gradientTransform="matrix(0, -69.87, -69.87, 0, 22547.65, -16224.64)" gradientUnits="userSpaceOnUse"><stop offset="0" stop-color="#0097a6"/><stop offset="0.03" stop-color="#008da2"/><stop offset="0.11" stop-color="#007a9a"/><stop offset="0.18" stop-color="#006f96"/><stop offset="0.27" stop-color="#006b94"/><stop offset="0.52" stop-color="#563881"/><stop offset="0.78" stop-color="#97367d"/><stop offset="1" stop-color="#d3296b"/><stop offset="1" stop-color="#d3296b"/></linearGradient><clipPath id="clip-path-2"><path class="cls-1" d="M68.76,62.19a19,19,0,0,0-15.4,18.3A2.48,2.48,0,0,0,54.73,83c1.71.82,3.29-.45,3.4-2.71a14.24,14.24,0,0,1,28.46,0c.09,1.88,1,3,2.47,2.92s2.32-1.14,2.29-3a19.1,19.1,0,0,0-19-18.43c-1.2.14-2.4.22-3.59.42"/></clipPath><linearGradient id="Degradado_sin_nombre_15-2" x1="-235.17" y1="321.76" x2="-232.42" y2="321.76" gradientTransform="matrix(0, -69.87, -69.87, 0, 22553.76, -16221.72)" xlink:href="#Degradado_sin_nombre_15"/><clipPath id="clip-path-3"><path class="cls-1" d="M62.87,80.52a2.38,2.38,0,1,0,4.74.33c.34-2.94,2.19-4.76,4.81-4.74s4.37,1.85,4.69,4.71a2.38,2.38,0,1,0,4.73-.28,9.49,9.49,0,0,0-19,0"/></clipPath><linearGradient id="Degradado_sin_nombre_15-3" x1="-235.17" y1="321.8" x2="-232.42" y2="321.8" gradientTransform="matrix(0, -69.87, -69.87, 0, 22556.4, -16220.48)" xlink:href="#Degradado_sin_nombre_15"/><clipPath id="clip-path-4"><path class="cls-1" d="M27.24,142.8h90.19v4.58H27.24Zm-4.75,9.32h99.68V138.06H22.49Z"/></clipPath><linearGradient id="Degradado_sin_nombre_15-4" x1="-235.17" y1="322.24" x2="-232.42" y2="322.24" gradientTransform="matrix(0, -69.87, -69.87, 0, 22587.44, -16200.56)" xlink:href="#Degradado_sin_nombre_15"/><clipPath id="clip-path-5"><polygon class="cls-1" points="13.01 95.21 13.01 121.18 17.75 121.18 17.75 99.97 127.09 99.97 127.09 121.1 131.71 121.1 131.71 95.21 13.01 95.21"/></clipPath><linearGradient id="Degradado_sin_nombre_15-5" x1="-235.17" y1="322.01" x2="-232.42" y2="322.01" gradientTransform="matrix(0, -69.87, -69.87, 0, 22570.84, -16211.4)" xlink:href="#Degradado_sin_nombre_15"/><clipPath id="clip-path-6"><polygon class="cls-1" points="127.05 135.63 127.05 156.86 17.61 156.86 17.61 135.64 13 135.64 13 161.64 131.69 161.64 131.69 135.63 127.05 135.63"/></clipPath><linearGradient id="Degradado_sin_nombre_15-6" x1="-235.17" y1="322.27" x2="-232.42" y2="322.27" gradientTransform="matrix(0, -69.87, -69.87, 0, 22589.06, -16199.52)" xlink:href="#Degradado_sin_nombre_15"/><clipPath id="clip-path-7"><rect class="cls-1" x="117.64" y="107.16" width="4.55" height="28.31"/></clipPath><linearGradient id="Degradado_sin_nombre_15-7" x1="-235.17" y1="321.78" x2="-232.42" y2="321.78" gradientTransform="matrix(0, -69.87, -69.87, 0, 22602.95, -16241.11)" xlink:href="#Degradado_sin_nombre_15"/><clipPath id="clip-path-8"><rect class="cls-1" x="108.12" y="111.84" width="4.58" height="23.6"/></clipPath><linearGradient id="Degradado_sin_nombre_15-8" x1="-235.17" y1="321.86" x2="-232.42" y2="321.86" gradientTransform="matrix(0, -69.87, -69.87, 0, 22598.73, -16233.77)" xlink:href="#Degradado_sin_nombre_15"/><clipPath id="clip-path-9"><rect class="cls-1" x="79.6" y="111.87" width="4.56" height="23.61"/></clipPath><linearGradient id="Degradado_sin_nombre_15-9" x1="-235.17" y1="322.04" x2="-232.42" y2="322.04" gradientTransform="matrix(0, -69.87, -69.87, 0, 22583.01, -16213.66)" xlink:href="#Degradado_sin_nombre_15"/><clipPath id="clip-path-10"><rect class="cls-1" x="60.54" y="116.62" width="4.55" height="18.85"/></clipPath><linearGradient id="Degradado_sin_nombre_15-10" x1="-235.17" y1="322.18" x2="-232.42" y2="322.18" gradientTransform="matrix(0, -69.87, -69.87, 0, 22573.64, -16199.41)" xlink:href="#Degradado_sin_nombre_15"/><clipPath id="clip-path-11"><rect class="cls-1" x="89.12" y="116.57" width="4.55" height="18.85"/></clipPath><linearGradient id="Degradado_sin_nombre_15-11" x1="-235.17" y1="322" x2="-232.42" y2="322" gradientTransform="matrix(0, -69.87, -69.87, 0, 22589.33, -16219.63)" xlink:href="#Degradado_sin_nombre_15"/><clipPath id="clip-path-12"><rect class="cls-1" x="41.52" y="116.62" width="4.55" height="18.87"/></clipPath><linearGradient id="Degradado_sin_nombre_15-12" x1="-235.17" y1="322.31" x2="-232.42" y2="322.31" gradientTransform="matrix(0, -69.87, -69.87, 0, 22563.24, -16185.88)" xlink:href="#Degradado_sin_nombre_15"/><clipPath id="clip-path-13"><rect class="cls-1" x="70.07" y="121.38" width="4.55" height="14.11"/></clipPath><linearGradient id="Degradado_sin_nombre_15-13" x1="-235.17" y1="322.14" x2="-232.42" y2="322.14" gradientTransform="matrix(0, -69.87, -69.87, 0, 22580.03, -16205.35)" xlink:href="#Degradado_sin_nombre_15"/><clipPath id="clip-path-14"><rect class="cls-1" x="32.02" y="121.37" width="4.54" height="14.12"/></clipPath><linearGradient id="Degradado_sin_nombre_15-14" x1="-235.17" y1="322.38" x2="-232.42" y2="322.38" gradientTransform="matrix(0, -69.87, -69.87, 0, 22558.96, -16178.65)" xlink:href="#Degradado_sin_nombre_15"/><clipPath id="clip-path-15"><rect class="cls-1" x="98.63" y="121.37" width="4.54" height="14.11"/></clipPath><linearGradient id="Degradado_sin_nombre_15-15" x1="-235.17" y1="321.95" x2="-232.42" y2="321.95" gradientTransform="matrix(0, -69.87, -69.87, 0, 22595.65, -16225.64)" xlink:href="#Degradado_sin_nombre_15"/><clipPath id="clip-path-16"><rect class="cls-1" x="22.54" y="126.14" width="4.55" height="9.32"/></clipPath><linearGradient id="Degradado_sin_nombre_15-16" x1="-235.17" y1="322.46" x2="-232.42" y2="322.46" gradientTransform="matrix(0, -69.87, -69.87, 0, 22554.99, -16171.01)" xlink:href="#Degradado_sin_nombre_15"/><clipPath id="clip-path-17"><rect class="cls-1" x="51.05" y="126.14" width="4.57" height="9.32"/></clipPath><linearGradient id="Degradado_sin_nombre_15-17" x1="-235.17" y1="322.27" x2="-232.42" y2="322.27" gradientTransform="matrix(0, -69.87, -69.87, 0, 22570.47, -16191.45)" xlink:href="#Degradado_sin_nombre_15"/><clipPath id="clip-path-18"><rect class="cls-1" x="13.01" y="126.11" width="4.57" height="4.56"/></clipPath><linearGradient id="Degradado_sin_nombre_15-18" x1="-235.17" y1="322.5" x2="-232.42" y2="322.5" gradientTransform="matrix(0, -69.87, -69.87, 0, 22548.56, -16165.12)" xlink:href="#Degradado_sin_nombre_15"/><clipPath id="clip-path-19"><rect class="cls-1" x="127.14" y="126.12" width="4.54" height="4.59"/></clipPath><linearGradient id="Degradado_sin_nombre_15-19" x1="-235.17" y1="321.77" x2="-232.42" y2="321.77" gradientTransform="matrix(0, -69.87, -69.87, 0, 22611.33, -16245.81)" xlink:href="#Degradado_sin_nombre_15"/></defs><title>naturallanguage</title><g id="Capa_2" data-name="Capa 2"><g id="Capa_1-2" data-name="Capa 1"><g class="cls-2"><rect class="cls-3" x="27.8" y="18.46" width="89.13" height="89.13" transform="translate(-23.37 69.63) rotate(-45)"/></g><g class="cls-4"><rect class="cls-5" x="51.11" y="51.55" width="42.49" height="42.49" transform="translate(-30.28 72.49) rotate(-45)"/></g><g class="cls-6"><rect class="cls-7" x="61.42" y="66.4" width="21.88" height="21.88" transform="translate(-33.5 73.82) rotate(-45)"/></g><g class="cls-8"><rect class="cls-9" x="32.12" y="104.88" width="80.43" height="80.43" transform="translate(-81.41 93.64) rotate(-45)"/></g><g class="cls-10"><rect class="cls-11" x="21.21" y="57.04" width="102.3" height="102.3" transform="translate(-55.31 82.85) rotate(-45)"/></g><g class="cls-12"><rect class="cls-13" x="21.19" y="97.48" width="102.31" height="102.31" transform="translate(-83.91 94.69) rotate(-45)"/></g><g class="cls-14"><rect class="cls-15" x="108.29" y="109.7" width="23.24" height="23.24" transform="translate(-50.66 120.32) rotate(-45)"/></g><g class="cls-16"><rect class="cls-17" x="100.44" y="113.68" width="19.93" height="19.93" transform="translate(-55.09 114.28) rotate(-45)"/></g><g class="cls-18"><rect class="cls-19" x="71.92" y="113.71" width="19.92" height="19.92" transform="translate(-63.46 94.12) rotate(-45)"/></g><g class="cls-20"><rect class="cls-21" x="54.54" y="117.78" width="16.55" height="16.55" transform="translate(-70.73 81.33) rotate(-45)"/></g><g class="cls-22"><rect class="cls-23" x="83.12" y="117.73" width="16.55" height="16.55" transform="translate(-62.33 101.53) rotate(-45)"/></g><g class="cls-24"><rect class="cls-25" x="35.51" y="117.77" width="16.56" height="16.56" transform="translate(-76.31 67.89) rotate(-45)"/></g><g class="cls-26"><rect class="cls-27" x="65.75" y="121.83" width="13.19" height="13.19" transform="translate(-69.62 88.77) rotate(-45)"/></g><g class="cls-28"><rect class="cls-29" x="27.7" y="121.83" width="13.19" height="13.19" transform="translate(-80.77 61.87) rotate(-45)"/></g><g class="cls-30"><rect class="cls-31" x="94.3" y="121.83" width="13.19" height="13.19" transform="translate(-61.26 108.96) rotate(-45)"/></g><g class="cls-32"><rect class="cls-33" x="19.91" y="125.9" width="9.81" height="9.81" transform="translate(-85.22 55.86) rotate(-45)"/></g><g class="cls-34"><rect class="cls-35" x="48.42" y="125.89" width="9.82" height="9.82" transform="translate(-76.87 76.02) rotate(-45)"/></g><g class="cls-36"><rect class="cls-37" x="12.07" y="125.16" width="6.45" height="6.45" transform="translate(-86.3 48.42) rotate(-45)"/></g><g class="cls-38"><rect class="cls-39" x="126.19" y="125.19" width="6.46" height="6.46" transform="translate(-52.9 129.12) rotate(-45)"/></g></g></g></svg>