<svg xmlns="http://www.w3.org/2000/svg" viewBox="0 0 110.15 109.33"><defs><style>.cls-1{fill:none;stroke:#fff;stroke-miterlimit:10;stroke-width:3px;}</style></defs><title>nosotros</title><g id="Capa_2" data-name="Capa 2"><g id="Capa_1-2" data-name="Capa 1"><path class="cls-1" d="M108.65,43.32V68.75c0,1.43,0,1.46-1.43,1.46-4.09,0-8.18,0-12.26,0-1,0-1.26-.31-1.26-1.3q0-24.44,0-48.88c0-2.27-1.07-3.37-3.4-3.44-1.58-.05-3.16,0-4.74,0-.67,0-1-.27-1-.95.07-4.41-.07-8.83.12-13.24,0-.72.34-.81.88-.84a83.08,83.08,0,0,1,8.79.2,19.5,19.5,0,0,1,6.33,1.44,11.68,11.68,0,0,1,7.09,8.43,30.16,30.16,0,0,1,.8,7.45Q108.67,31.2,108.65,43.32Z"/><path class="cls-1" d="M1.5,66.71v-26c0-1.43,0-1.44,1.43-1.44H15c1.43,0,1.44,0,1.44,1.43V88.86a7,7,0,0,0,.14,1.77,2.48,2.48,0,0,0,2.26,2,22.56,22.56,0,0,0,5.13.11c1.27-.17,1.56.09,1.55,1.35-.05,4.22-.12,8.44-.16,12.66,0,.69-.23,1-1,1-3.59-.08-7.2.24-10.76-.41-3-.55-5.91-1.43-8.15-3.69A13.85,13.85,0,0,1,1.9,96.16a37.65,37.65,0,0,1-.4-6.79Q1.52,78,1.5,66.71Z"/><path class="cls-1" d="M67.05,62.9c-2.74,0-2.7,0-3.78-2.48-1.33-3-2.73-6-4.1-9-.08-.17-.12-.41-.36-.4s-.32.21-.4.39c-1.23,2.7-2.55,5.36-3.68,8.1-1.39,3.37-1.33,3.4-4.91,3.39-2.23,0-2.44.33-1.26-2.09,2.49-5.1,4.94-10.2,7.39-15.32a1.09,1.09,0,0,1,1.21-.73c1.08,0,2.17,0,3.25-.06a1.09,1.09,0,0,1,1.19.66c2.47,5.18,5,10.34,7.42,15.52.94,2,.89,2-1.38,2Z"/></g></g></svg>