<svg xmlns="http://www.w3.org/2000/svg" viewBox="0 0 400 175"><defs><style>.cls-1{fill:none;}.cls-2{fill:red;}</style></defs><title>oracleLogo</title><g id="Capa_2" data-name="Capa 2"><g id="Capa_1-2" data-name="Capa 1"><rect class="cls-1" width="400" height="175"/><rect class="cls-1" x="22.2" y="43.81" width="357.8" height="81.56"/><path class="cls-2" d="M179.35,90.54h21L189.23,72.71,168.91,105h-9.26l24.74-38.72a5.9,5.9,0,0,1,9.62-.07L218.83,105h-9.27l-4.35-7.21H184Zm96.13,7.21V64.12h-7.85V101a3.82,3.82,0,0,0,1.14,2.72,4,4,0,0,0,2.88,1.19h35.8l4.62-7.2Zm-129.91-6a13.81,13.81,0,1,0,0-27.61H111.21V105h7.85V71.32h26a6.61,6.61,0,0,1,0,13.22H122.9L146.34,105h11.41L142,91.72ZM62.88,105a20.42,20.42,0,1,1,0-40.83H86.62a20.42,20.42,0,0,1,0,40.84Zm23.21-7.19a13.22,13.22,0,0,0,0-26.44H63.41a13.22,13.22,0,1,0,0,26.44ZM235.21,105a20.42,20.42,0,1,1,0-40.83h28.2l-4.62,7.2H235.74a13.22,13.22,0,1,0,0,26.44h28.31L259.44,105Zm96-7.19a13.22,13.22,0,0,1-12.71-9.61h33.56l4.63-7.2h-38.2a13.21,13.21,0,0,1,12.72-9.63h23l4.63-7.2H330.72a20.42,20.42,0,0,0,0,40.83H355l4.62-7.19Z"/><path class="cls-2" d="M363.13,68.47a3.61,3.61,0,1,1,3.61,3.61A3.61,3.61,0,0,1,363.13,68.47Zm3.61,4.6a4.59,4.59,0,1,0-4.58-4.59A4.59,4.59,0,0,0,366.74,73.07Zm-.43-7.31a3.55,3.55,0,0,1,1.34.13,1.47,1.47,0,0,1,1,1.45,2.23,2.23,0,0,1,0,.42,1.43,1.43,0,0,1-.64.88.56.56,0,0,1-.23.12l1.19,2.14h-1.15l-1-2H366v2h-1V65.76Zm.36,2.32a.94.94,0,0,0,.85-.32.73.73,0,0,0,.12-.44.69.69,0,0,0-.39-.63,2.55,2.55,0,0,0-.94-.09H366v1.48Z"/></g></g></svg>