<?xml version="1.0" encoding="UTF-8" standalone="no"?>
<svg
   xmlns:dc="http://purl.org/dc/elements/1.1/"
   xmlns:cc="http://creativecommons.org/ns#"
   xmlns:rdf="http://www.w3.org/1999/02/22-rdf-syntax-ns#"
   xmlns:svg="http://www.w3.org/2000/svg"
   xmlns="http://www.w3.org/2000/svg"
   viewBox="0 0 1066.6667 800"
   height="800"
   width="1066.6667"
   xml:space="preserve"
   id="svg2"
   version="1.1"><metadata
     id="metadata8"><rdf:RDF><cc:Work
         rdf:about=""><dc:format>image/svg+xml</dc:format><dc:type
           rdf:resource="http://purl.org/dc/dcmitype/StillImage" /></cc:Work></rdf:RDF></metadata><defs
     id="defs6"><clipPath
       id="clipPath20"
       clipPathUnits="userSpaceOnUse"><path
         id="path18"
         d="M 0,600 H 800 V 0 H 0 Z" /></clipPath></defs><g
     transform="matrix(1.3333333,0,0,-1.3333333,0,800)"
     id="g10"><path
       id="path12"
       style="fill:#ffffff;fill-opacity:1;fill-rule:nonzero;stroke:none"
       d="M 0,0 H 800 V 600 H 0 Z" /><g
       id="g14"><g
         clip-path="url(#clipPath20)"
         id="g16"><g
           transform="translate(472.3379,262.7412)"
           id="g22"><path
             id="path24"
             style="fill:#f4aa01;fill-opacity:1;fill-rule:nonzero;stroke:none"
             d="M 0,0 C -0.514,-1.795 -1.352,-3.125 -2.51,-3.991 -3.669,-4.857 -5.132,-5.29 -6.9,-5.29 c -1.1,0 -2.106,0.182 -3.017,0.547 -0.912,0.365 -1.696,0.889 -2.354,1.569 -0.659,0.681 -1.169,1.505 -1.535,2.469 -0.366,0.967 -0.548,2.044 -0.548,3.234 0,1.262 0.182,2.395 0.548,3.396 0.366,1.001 0.883,1.848 1.556,2.543 0.671,0.695 1.476,1.225 2.414,1.591 0.939,0.365 1.98,0.548 3.125,0.548 1.688,0 3.112,-0.4 4.276,-1.198 1.164,-0.8 1.965,-2.023 2.408,-3.674 L -3.95,5.113 c -0.236,0.83 -0.603,1.415 -1.104,1.759 -0.5,0.343 -1.106,0.514 -1.819,0.514 -0.505,0 -0.972,-0.078 -1.4,-0.238 -0.429,-0.157 -0.798,-0.415 -1.11,-0.777 -0.31,-0.361 -0.552,-0.839 -0.723,-1.433 -0.171,-0.596 -0.258,-1.327 -0.258,-2.192 0,-0.911 0.087,-1.676 0.258,-2.293 0.171,-0.618 0.41,-1.114 0.716,-1.489 0.308,-0.374 0.67,-0.643 1.09,-0.806 0.419,-0.162 0.872,-0.243 1.359,-0.243 0.704,0 1.32,0.227 1.847,0.677 0.528,0.452 0.936,1.168 1.225,2.151 z" /></g><g
           transform="translate(486.833,265.4063)"
           id="g26"><path
             id="path28"
             style="fill:#f4aa01;fill-opacity:1;fill-rule:nonzero;stroke:none"
             d="m 0,0 c 0,-0.804 0.102,-1.502 0.305,-2.098 0.203,-0.594 0.479,-1.089 0.832,-1.481 0.351,-0.393 0.766,-0.686 1.244,-0.88 0.478,-0.192 0.997,-0.291 1.556,-0.291 0.559,0 1.076,0.099 1.549,0.291 0.474,0.194 0.884,0.487 1.232,0.88 0.346,0.392 0.619,0.888 0.818,1.488 0.198,0.6 0.298,1.311 0.298,2.131 0,0.804 -0.095,1.499 -0.284,2.09 C 7.36,2.722 7.096,3.208 6.758,3.591 6.42,3.975 6.009,4.259 5.526,4.444 5.045,4.629 4.515,4.721 3.937,4.721 3.368,4.721 2.844,4.631 2.361,4.45 1.878,4.27 1.464,3.986 1.116,3.598 0.769,3.209 0.497,2.719 0.298,2.123 0.1,1.528 0,0.82 0,0 m -3.991,-0.095 c 0,1.272 0.183,2.406 0.549,3.403 0.365,0.996 0.887,1.838 1.569,2.522 0.68,0.686 1.508,1.209 2.481,1.57 0.975,0.36 2.071,0.542 3.288,0.542 1.208,0 2.302,-0.186 3.281,-0.556 C 8.156,7.017 8.99,6.485 9.68,5.797 10.37,5.105 10.902,4.27 11.276,3.287 11.651,2.305 11.838,1.198 11.838,-0.027 11.838,-1.264 11.651,-2.37 11.276,-3.35 10.902,-4.327 10.37,-5.158 9.68,-5.839 8.99,-6.519 8.16,-7.043 7.19,-7.408 6.222,-7.773 5.142,-7.955 3.95,-7.955 c -1.218,0 -2.315,0.182 -3.294,0.547 -0.978,0.365 -1.812,0.889 -2.502,1.569 -0.69,0.681 -1.22,1.507 -1.591,2.476 -0.37,0.969 -0.554,2.059 -0.554,3.268" /></g><g
           transform="translate(510.2852,257.6943)"
           id="g30"><path
             id="path32"
             style="fill:#f4aa01;fill-opacity:1;fill-rule:nonzero;stroke:none"
             d="M 0,0 V 15.396 H 3.68 L 9.646,5.993 h 0.042 v 9.403 h 3.679 V 0 H 9.605 L 3.72,9.254 H 3.68 V 0 Z" /></g><g
           transform="translate(536.0762,257.6943)"
           id="g34"><path
             id="path36"
             style="fill:#f4aa01;fill-opacity:1;fill-rule:nonzero;stroke:none"
             d="M 0,0 V 15.396 H 3.68 L 9.646,5.993 h 0.042 v 9.403 h 3.679 V 0 H 9.605 L 3.72,9.254 H 3.68 V 0 Z" /></g><g
           transform="translate(561.8682,257.6943)"
           id="g38"><path
             id="path40"
             style="fill:#f4aa01;fill-opacity:1;fill-rule:nonzero;stroke:none"
             d="M 0,0 V 15.396 H 12.285 V 12.243 H 3.896 V 9.646 h 7.807 V 6.494 H 3.896 V 3.151 h 8.686 V 0 Z" /></g><g
           transform="translate(599.3906,262.7412)"
           id="g42"><path
             id="path44"
             style="fill:#f4aa01;fill-opacity:1;fill-rule:nonzero;stroke:none"
             d="M 0,0 C -0.514,-1.795 -1.352,-3.125 -2.51,-3.991 -3.669,-4.857 -5.132,-5.29 -6.9,-5.29 c -1.1,0 -2.106,0.182 -3.018,0.547 -0.911,0.365 -1.695,0.889 -2.353,1.569 -0.659,0.681 -1.17,1.505 -1.536,2.469 -0.365,0.967 -0.547,2.044 -0.547,3.234 0,1.262 0.182,2.395 0.547,3.396 0.366,1.001 0.884,1.848 1.556,2.543 0.672,0.695 1.477,1.225 2.415,1.591 0.938,0.365 1.98,0.548 3.125,0.548 1.687,0 3.112,-0.4 4.275,-1.198 1.165,-0.8 1.966,-2.023 2.409,-3.674 L -3.95,5.113 c -0.236,0.83 -0.603,1.415 -1.104,1.759 -0.5,0.343 -1.106,0.514 -1.82,0.514 -0.504,0 -0.972,-0.078 -1.399,-0.238 -0.429,-0.157 -0.798,-0.415 -1.11,-0.777 -0.31,-0.361 -0.552,-0.839 -0.724,-1.433 -0.171,-0.596 -0.257,-1.327 -0.257,-2.192 0,-0.911 0.086,-1.676 0.257,-2.293 0.172,-0.618 0.411,-1.114 0.717,-1.489 0.308,-0.374 0.67,-0.643 1.089,-0.806 0.42,-0.162 0.872,-0.243 1.36,-0.243 0.703,0 1.319,0.227 1.847,0.677 0.528,0.452 0.936,1.168 1.225,2.151 z" /></g><g
           transform="translate(613.8174,257.6943)"
           id="g46"><path
             id="path48"
             style="fill:#f4aa01;fill-opacity:1;fill-rule:nonzero;stroke:none"
             d="m 0,0 v 12.243 h -4.612 v 3.153 H 8.497 V 12.243 H 3.896 V 0 Z" /></g><g
           transform="translate(287.7803,305.6274)"
           id="g50"><path
             id="path52"
             style="fill:#333333;fill-opacity:1;fill-rule:nonzero;stroke:none"
             d="m 0,0 8.995,0.788 c 0.426,-3.607 1.417,-6.563 2.974,-8.873 1.556,-2.31 3.973,-4.178 7.251,-5.604 3.276,-1.427 6.962,-2.139 11.059,-2.139 3.638,0 6.849,0.541 9.635,1.622 2.784,1.082 4.857,2.565 6.218,4.45 1.359,1.882 2.04,3.94 2.04,6.168 0,2.262 -0.657,4.235 -1.967,5.924 -1.31,1.686 -3.474,3.104 -6.488,4.251 -1.934,0.753 -6.211,1.926 -12.829,3.514 -6.62,1.589 -11.257,3.089 -13.911,4.498 -3.441,1.802 -6.006,4.039 -7.693,6.71 -1.688,2.67 -2.532,5.66 -2.532,8.97 0,3.638 1.032,7.037 3.097,10.2 2.065,3.162 5.08,5.563 9.045,7.202 3.964,1.638 8.372,2.458 13.222,2.458 5.342,0 10.052,-0.86 14.133,-2.581 4.08,-1.72 7.217,-4.252 9.412,-7.595 2.196,-3.341 3.376,-7.127 3.54,-11.354 l -9.142,-0.688 c -0.492,4.555 -2.157,7.996 -4.99,10.323 -2.835,2.325 -7.022,3.488 -12.559,3.488 -5.768,0 -9.971,-1.056 -12.609,-3.17 -2.638,-2.113 -3.957,-4.662 -3.957,-7.644 0,-2.588 0.934,-4.718 2.802,-6.39 1.836,-1.671 6.628,-3.384 14.378,-5.137 7.749,-1.752 13.066,-3.284 15.951,-4.595 4.194,-1.935 7.291,-4.383 9.29,-7.35 1.998,-2.965 2.999,-6.381 2.999,-10.247 0,-3.835 -1.098,-7.447 -3.293,-10.839 -2.196,-3.392 -5.351,-6.031 -9.463,-7.914 -4.113,-1.885 -8.743,-2.826 -13.886,-2.826 -6.522,0 -11.987,0.951 -16.394,2.849 -4.407,1.902 -7.865,4.76 -10.371,8.578 C 1.45,-9.136 0.13,-4.817 0,0" /></g><g
           transform="translate(359.6992,313.5908)"
           id="g54"><path
             id="path56"
             style="fill:#333333;fill-opacity:1;fill-rule:nonzero;stroke:none"
             d="m 0,0 h 29.148 c -0.393,4.392 -1.508,7.685 -3.342,9.879 -2.819,3.409 -6.473,5.113 -10.961,5.113 -4.065,0 -7.48,-1.36 -10.249,-4.079 C 1.827,8.191 0.295,4.555 0,0 m 29.049,-14.305 9.143,-1.13 c -1.442,-5.341 -4.112,-9.486 -8.011,-12.435 -3.9,-2.949 -8.882,-4.426 -14.944,-4.426 -7.635,0 -13.689,2.352 -18.162,7.055 -4.474,4.7 -6.712,11.297 -6.712,19.784 0,8.783 2.263,15.6 6.785,20.449 4.522,4.85 10.388,7.276 17.598,7.276 6.981,0 12.683,-2.377 17.106,-7.128 4.424,-4.752 6.635,-11.437 6.635,-20.056 0,-0.524 -0.016,-1.31 -0.048,-2.359 h -38.93 c 0.326,-5.735 1.948,-10.125 4.866,-13.173 2.916,-3.049 6.554,-4.572 10.912,-4.572 3.244,0 6.012,0.851 8.307,2.556 2.294,1.703 4.113,4.425 5.455,8.159" /></g><g
           transform="translate(410.9727,308.7251)"
           id="g58"><path
             id="path60"
             style="fill:#333333;fill-opacity:1;fill-rule:nonzero;stroke:none"
             d="m 0,0 c 0,-6.719 1.409,-11.756 4.229,-15.117 2.815,-3.357 6.19,-5.037 10.124,-5.037 3.767,0 7.011,1.597 9.732,4.793 2.721,3.194 4.081,8.052 4.081,14.573 0,6.948 -1.435,12.175 -4.303,15.681 -2.867,3.507 -6.232,5.259 -10.098,5.259 -3.835,0 -7.089,-1.629 -9.758,-4.89 C 1.336,12 0,6.914 0,0 m 27.28,-46.256 v 25.561 c -1.378,-1.933 -3.303,-3.538 -5.775,-4.818 -2.475,-1.278 -5.104,-1.917 -7.889,-1.917 -6.195,0 -11.528,2.474 -16,7.424 -4.473,4.946 -6.712,11.731 -6.712,20.349 0,5.243 0.909,9.946 2.73,14.108 1.818,4.161 4.457,7.316 7.913,9.463 3.456,2.145 7.251,3.219 11.381,3.219 6.454,0 11.533,-2.72 15.238,-8.159 v 6.98 h 7.962 v -72.21 z" /></g><g
           transform="translate(491.1484,282.4756)"
           id="g62"><path
             id="path64"
             style="fill:#333333;fill-opacity:1;fill-rule:nonzero;stroke:none"
             d="m 0,0 v 7.667 c -4.063,-5.898 -9.585,-8.848 -16.566,-8.848 -3.082,0 -5.957,0.591 -8.626,1.771 -2.671,1.179 -4.654,2.662 -5.948,4.449 -1.296,1.786 -2.204,3.974 -2.73,6.562 -0.359,1.736 -0.538,4.488 -0.538,8.258 v 32.344 h 8.846 V 23.25 c 0,-4.621 0.18,-7.733 0.542,-9.339 0.556,-2.327 1.737,-4.153 3.54,-5.481 1.8,-1.327 4.029,-1.991 6.685,-1.991 2.651,0 5.144,0.68 7.47,2.04 2.327,1.36 3.972,3.212 4.939,5.555 0.967,2.343 1.451,5.743 1.451,10.2 V 52.203 H 7.913 L 7.913,0 Z" /></g><g
           transform="translate(514.6973,308.5762)"
           id="g66"><path
             id="path68"
             style="fill:#333333;fill-opacity:1;fill-rule:nonzero;stroke:none"
             d="m 0,0 c 0,-6.685 1.459,-11.691 4.373,-15.016 2.918,-3.326 6.588,-4.989 11.013,-4.989 4.39,0 8.043,1.673 10.96,5.013 2.917,3.344 4.376,8.438 4.376,15.288 0,6.455 -1.469,11.347 -4.398,14.672 -2.934,3.327 -6.58,4.99 -10.938,4.99 -4.425,0 -8.095,-1.656 -11.013,-4.965 C 1.459,11.683 0,6.687 0,0 m -9.094,0 c 0,9.667 2.687,16.828 8.061,21.481 4.492,3.867 9.962,5.801 16.419,5.801 7.177,0 13.041,-2.352 17.596,-7.054 4.555,-4.702 6.833,-11.2 6.833,-19.49 0,-6.718 -1.008,-12.002 -3.023,-15.853 -2.015,-3.85 -4.948,-6.84 -8.798,-8.969 -3.849,-2.131 -8.054,-3.197 -12.608,-3.197 -7.308,0 -13.216,2.344 -17.72,7.03 -4.506,4.686 -6.76,11.437 -6.76,20.251" /></g><path
           id="path70"
           style="fill:#f4aa01;fill-opacity:1;fill-rule:nonzero;stroke:none"
           d="m 560.907,337.604 h 8.848 V 327.43 h -8.848 z" /><path
           id="path72"
           style="fill:#333333;fill-opacity:1;fill-rule:nonzero;stroke:none"
           d="m 560.907,323.903 h 8.848 v -41.428 h -8.848 z" /><g
           transform="translate(612.5244,308.6753)"
           id="g74"><path
             id="path76"
             style="fill:#333333;fill-opacity:1;fill-rule:nonzero;stroke:none"
             d="m 0,0 c -3.213,-1.31 -8.031,-2.426 -14.453,-3.343 -3.639,-0.525 -6.211,-1.114 -7.719,-1.769 -1.508,-0.655 -2.671,-1.615 -3.488,-2.876 -0.821,-1.261 -1.23,-2.662 -1.23,-4.203 0,-2.359 0.893,-4.324 2.679,-5.898 1.785,-1.573 4.4,-2.36 7.842,-2.36 3.406,0 6.436,0.745 9.093,2.238 2.654,1.489 4.604,3.529 5.849,6.12 C -0.478,-10.093 0,-7.145 0,-3.244 Z m 0.735,-19.76 c -3.276,-2.786 -6.429,-4.752 -9.46,-5.898 -3.033,-1.147 -6.287,-1.722 -9.757,-1.722 -5.737,0 -10.144,1.402 -13.224,4.204 -3.082,2.801 -4.621,6.381 -4.621,10.74 0,2.556 0.583,4.891 1.746,7.005 1.161,2.114 2.685,3.809 4.57,5.087 1.884,1.278 4.007,2.244 6.365,2.9 1.737,0.459 4.359,0.902 7.864,1.327 C -8.637,4.736 -3.378,5.751 0,6.93 c 0.029,1.214 0.046,1.983 0.046,2.311 0,3.604 -0.836,6.145 -2.506,7.62 -2.261,1.997 -5.62,2.997 -10.077,2.997 -4.159,0 -7.234,-0.729 -9.217,-2.187 -1.982,-1.459 -3.448,-4.039 -4.397,-7.742 l -8.654,1.18 c 0.789,3.703 2.083,6.692 3.886,8.972 1.801,2.275 4.405,4.029 7.815,5.258 3.407,1.229 7.357,1.844 11.845,1.844 4.457,0 8.078,-0.524 10.865,-1.573 2.785,-1.05 4.831,-2.368 6.144,-3.957 1.309,-1.59 2.229,-3.598 2.753,-6.022 0.295,-1.508 0.442,-4.227 0.442,-8.16 V -4.326 c 0,-8.225 0.188,-13.426 0.564,-15.606 0.376,-2.181 1.121,-4.27 2.238,-6.268 H 2.504 c -0.915,1.835 -1.508,3.983 -1.769,6.44" /></g><g
           transform="translate(253.978,322.0796)"
           id="g78"><path
             id="path80"
             style="fill:#f4aa01;fill-opacity:1;fill-rule:nonzero;stroke:none"
             d="m 0,0 -0.158,-12.269 -10.424,-9.914 -18.178,0.234 c -1.264,0.016 -1.757,-0.479 -1.771,-1.742 l -0.246,-19.062 c -0.016,-1.261 0.461,-1.846 1.725,-1.862 L -9.99,-44.86 c 1.26,-0.015 1.864,0.554 1.879,1.815 l 0.211,16.302 13.554,11.909 9.778,-0.126 c 0.903,-0.012 2.01,0.21 2.023,1.112 l 0.174,13.621 c 0.013,0.9 -1.083,1.626 -1.985,1.638 L 2.025,1.584 C 1.123,1.597 0.013,0.9 0,0" /></g><g
           transform="translate(224.1675,354.4946)"
           id="g82"><path
             id="path84"
             style="fill:#f4aa01;fill-opacity:1;fill-rule:nonzero;stroke:none"
             d="m 0,0 -0.145,-11.273 -11.728,-10.179 -17.066,0.22 c -1.262,0.018 -2.835,-1.178 -2.851,-2.441 l -0.246,-19.063 c -0.016,-1.263 1.527,-2.405 2.789,-2.422 l 19.062,-0.245 c 1.261,-0.015 2.059,1.098 2.076,2.359 l 0.221,17.297 12.235,10.384 10.893,-0.14 c 0.901,-0.012 2.202,0.754 2.215,1.657 l 0.175,13.619 c 0.012,0.902 -1.277,1.083 -2.18,1.095 L 1.831,1.043 C 0.927,1.055 0.012,0.901 0,0" /></g><g
           transform="translate(186.3955,257.4873)"
           id="g86"><path
             id="path88"
             style="fill:#333333;fill-opacity:1;fill-rule:nonzero;stroke:none"
             d="m 0,0 0.133,10.319 10.881,10.014 13.882,-0.182 c 1.075,-0.01 1.82,0.624 1.834,1.701 l 0.208,16.216 c 0.015,1.075 -0.708,2.219 -1.784,2.234 L 8.935,40.51 C 7.861,40.524 6.804,39.403 6.79,38.327 L 6.608,24.215 -4.959,14.241 l -9.147,0.115 c -0.825,0.013 -2.093,-0.887 -2.104,-1.712 L -16.37,0.21 c -0.01,-0.825 1.245,-0.953 2.069,-0.963 L -1.865,-0.914 C -1.042,-0.923 -0.01,-0.825 0,0" /></g><g
           transform="translate(253.0669,349.1094)"
           id="g90"><path
             id="path92"
             style="fill:#333333;fill-opacity:1;fill-rule:nonzero;stroke:none"
             d="m 0,0 -0.119,-9.15 -11.37,-9.811 -13.67,0.175 c -1.073,0.015 -1.543,-0.817 -1.556,-1.889 l -0.209,-16.221 c -0.013,-1.073 0.431,-2.025 1.507,-2.038 l 16.219,-0.209 c 1.073,-0.013 2.408,0.915 2.423,1.989 l 0.184,14.301 9.743,8.74 10.463,-0.133 c 0.823,-0.011 1.326,0.79 1.335,1.615 l 0.161,12.437 c 0.011,0.823 -0.479,1.047 -1.302,1.059 L 1.373,1.023 C 0.549,1.034 0.01,0.824 0,0" /></g><g
           transform="translate(253.5249,286.8369)"
           id="g94"><path
             id="path96"
             style="fill:#333333;fill-opacity:1;fill-rule:nonzero;stroke:none"
             d="m 0,0 -0.161,-12.453 -11.279,-9.735 -17.321,0.223 c -1.264,0.018 -1.767,-1.418 -1.782,-2.679 l -0.247,-19.062 c -0.016,-1.262 0.457,-2.168 1.722,-2.187 l 19.06,-0.243 c 1.263,-0.015 1.869,0.877 1.885,2.139 l 0.22,17.067 13.763,12.076 9.573,-0.123 c 0.902,-0.011 2.009,0.228 2.021,1.13 l 0.175,13.62 c 0.012,0.9 -1.084,1.61 -1.986,1.62 L 2.025,1.569 C 1.123,1.58 0.011,0.9 0,0" /></g><g
           transform="translate(190.1758,355.5122)"
           id="g98"><path
             id="path100"
             style="fill:#333333;fill-opacity:1;fill-rule:nonzero;stroke:none"
             d="m 0,0 -0.149,-11.598 -12.928,-10.418 -16.365,0.21 c -1.263,0.016 -2.345,-1.559 -2.362,-2.82 l -0.244,-19.063 c -0.016,-1.263 1.036,-2.027 2.298,-2.042 l 19.062,-0.246 c 1.262,-0.016 2.549,0.717 2.564,1.98 l 0.231,17.924 12.101,10.132 10.527,-0.136 c 0.904,-0.012 1.449,1.345 1.46,2.247 l 0.176,13.621 c 0.01,0.899 -0.505,1.751 -1.409,1.762 L 1.345,1.729 C 0.44,1.74 0.012,0.901 0,0" /></g></g></g></g></svg>