<svg xmlns="http://www.w3.org/2000/svg" viewBox="0 0 105.25 109.58"><defs><style>.cls-1{fill:#fff;}.cls-2,.cls-3{fill:none;stroke:#fff;stroke-miterlimit:10;}.cls-3{stroke-width:3px;}</style></defs><title>servicios</title><g id="Capa_2" data-name="Capa 2"><g id="Capa_1-2" data-name="Capa 1"><path class="cls-1" d="M53.15,98.31c-5.17,0-10.33,0-15.5,0A7.83,7.83,0,0,0,32.54,100q-5.38,4.15-10.83,8.21c-2.69,2-4.49,1.87-6.66-.6Q8.12,99.68,1.34,91.65c-1.92-2.28-1.76-4.13.38-6.13,5.71-5.3,11.4-10.61,17.36-15.62,7.18-6,15.21-7.84,24.17-4.9A54.3,54.3,0,0,0,61,67.5c4,0,8.07,0,12.11,0,.42,0,.93-.14,1.26,0,3.17,1.69,5-.4,6.9-2.37,3-3.09,6-6.17,9.18-9.15a8.83,8.83,0,0,1,10.2-1.74,8.53,8.53,0,0,1,4.57,8.43,9,9,0,0,1-3.12,5.84L85.24,85.36c-3.51,3.5-7,7-10.5,10.53a7.67,7.67,0,0,1-5.87,2.44C63.63,98.28,58.39,98.31,53.15,98.31Zm-1.32-3.5v-.08c5.17,0,10.33,0,15.5,0a7.64,7.64,0,0,0,5.73-2.27c8.9-8.92,17.85-17.79,26.76-26.7,2.41-2.41,2.56-5.19.5-7.29s-5-2.12-7.5.29c-3.73,3.67-7.4,7.42-11.14,11.09A2.2,2.2,0,0,0,81,72.42C82.79,78.26,79.28,83,73.18,83c-4,0-7.92,0-11.89,0q-6.9,0-13.8,0c-1.25,0-2.58-.58-2.53-1.7a2.33,2.33,0,0,1,2.65-1.91l.43,0q12.74,0,25.48,0c2.71,0,4.47-1.58,4.58-4s-1.72-4.12-4.52-4.33c-4.52-.35-9-.35-13.57-.3a59.26,59.26,0,0,1-18-2.43c-7.87-2.4-14.93-1.09-21.09,4.54-5.33,4.87-10.67,9.72-16.1,14.47-1.29,1.12-1.07,1.77-.11,2.87q6.38,7.26,12.61,14.64c.9,1.07,1.55,1.09,2.6.27,3.57-2.78,7.25-5.44,10.78-8.26a9.53,9.53,0,0,1,6.48-2.12C42.06,94.88,46.94,94.81,51.83,94.81Z"/><line class="cls-2" x1="16.31" y1="49.45" x2="30.56" y2="35.26"/><circle class="cls-3" cx="36.41" cy="32.05" r="7.68"/><line class="cls-2" x1="41.1" y1="36.68" x2="57.71" y2="48.03"/><line class="cls-2" x1="91.52" y1="15.94" x2="68.88" y2="45.83"/><circle class="cls-3" cx="94.83" cy="9.18" r="7.68"/><circle class="cls-3" cx="63.97" cy="52.31" r="7.68"/><circle class="cls-3" cx="10.84" cy="56.07" r="7.68"/></g></g></svg>