<svg xmlns="http://www.w3.org/2000/svg" viewBox="0 0 400 175"><defs><style>.cls-1{fill:none;}.cls-2{fill:#29a1d8;}.cls-3{fill:#475056;}.cls-4{fill:#8d9196;}.cls-5{fill:#c8cdd0;}</style></defs><title>springlabsLogo</title><g id="Capa_2" data-name="Capa 2"><g id="Capa_1-2" data-name="Capa 1"><rect class="cls-1" width="400" height="175"/><path class="cls-2" d="M84.94,47a3.63,3.63,0,0,1,2.61,2.33A3.18,3.18,0,0,1,86.05,53a3.09,3.09,0,0,1-4-.82,1.37,1.37,0,0,0-1.39-.64c-1.25.08-2.69-.42-3.71.2s-1.56,1.86-2.29,2.85Q68.15,63.51,61.6,72.38c-.43.59-.48.84.16,1.34,7.12,5.47,10.33,12.83,10.07,21.68a26.76,26.76,0,0,1-52.7,5.45,26.33,26.33,0,0,1,2.3-18.71c.54-1.07,1.37-1.52,2.2-1.27a1.53,1.53,0,0,1,.9,2.42,24,24,0,0,0-2.61,7.63,23.7,23.7,0,0,0,40,20.42c10.41-9.86,9-26.6-.83-34.59a22.56,22.56,0,0,0-2.79-2c-1.3-.78-1.41-1.31-.5-2.58l5-6.78q5.67-7.76,11.31-15.51A2,2,0,0,1,75.92,49c1.63.06,3.26,0,4.89,0A1.09,1.09,0,0,0,82,48.45,3.7,3.7,0,0,1,84.2,47Zm-1.65,3.13a1.23,1.23,0,0,0,1.2,1.25,1.15,1.15,0,0,0,1.18-1.16A1.08,1.08,0,0,0,84.59,49,1.18,1.18,0,0,0,83.29,50.13Z"/><path class="cls-3" d="M83.57,55.71c1.42,0,2.83,0,4.25,0a1.12,1.12,0,0,0,1.06-.51,3.9,3.9,0,1,1,3.67,6.12,3.8,3.8,0,0,1-3.91-2,1,1,0,0,0-1.06-.63c-2.13,0-4.25,0-6.38,0a1.22,1.22,0,0,0-1.14.57q-5,6.84-10,13.64a.78.78,0,0,0,0,1.17c14.75,17.19,6.55,46.79-18.86,52A32.44,32.44,0,1,1,39.79,62.19a31.5,31.5,0,0,1,13,.59,1.14,1.14,0,0,0,1.43-.55c2.75-3.78,5.53-7.54,8.3-11.3a2.81,2.81,0,0,1,1-1,1.48,1.48,0,0,1,1.79.22,1.34,1.34,0,0,1,.34,1.67,4.26,4.26,0,0,1-.52.87q-4.87,6.66-9.75,13.33a.94.94,0,0,1-1.28.41A29.44,29.44,0,1,0,74,99.24c1.58-9.59-1.17-18-7.78-25.13a.89.89,0,0,1-.07-1.38q6-8.24,12-16.51a1.22,1.22,0,0,1,1.15-.55c1.45,0,2.9,0,4.34,0Zm9.92,1.62A1.49,1.49,0,0,0,92,55.87a1.56,1.56,0,0,0-1.49,1.47,1.53,1.53,0,0,0,1.55,1.5A1.47,1.47,0,0,0,93.49,57.33Z"/><path class="cls-3" d="M24.35,93.84a21.32,21.32,0,0,1,4.57-13.42,20.68,20.68,0,0,1,7.61-6.07,2.09,2.09,0,0,0,1.24-1.29A2.76,2.76,0,0,1,41,71.38a2.88,2.88,0,0,1,2.18,2.29,2.74,2.74,0,0,1-1.89,3.16,2.25,2.25,0,0,1-1.61,0c-1.2-.62-2,.08-2.9.6A19,19,0,0,0,28.21,87.9a17.92,17.92,0,0,0-1,6,18.69,18.69,0,0,0,10.67,16.69,18.67,18.67,0,0,0,15.06.44,21.09,21.09,0,0,0,6.41-4.19c.59-.52,1-1.19,1.6-1.75a1.53,1.53,0,0,1,2-.28,1.3,1.3,0,0,1,0,1.94,21.08,21.08,0,0,1-5.5,5,20.24,20.24,0,0,1-6.9,2.82,23.45,23.45,0,0,1-7.24.37,21.36,21.36,0,0,1-16-10.16A20.56,20.56,0,0,1,24.35,93.84Zm16-20.75c-.44.22-1,.43-1,1a.88.88,0,0,0,.9,1,1,1,0,0,0,1.08-1C41.34,73.54,40.8,73.32,40.34,73.09Z"/><path class="cls-4" d="M29.44,91.94A16.18,16.18,0,0,1,36.3,79.42c.84-.62,1.64-.58,2.1.09s.2,1.34-.6,1.95C33.05,85.13,31,90,32.23,95.84s5.07,9.63,11,11a14.18,14.18,0,0,0,15.94-8.15A1,1,0,0,0,59,97.65a2.68,2.68,0,0,1,.9-3.83,2.73,2.73,0,0,1,3.75,1.05,2.7,2.7,0,0,1-1.33,3.79,1.41,1.41,0,0,0-.79.8,16.72,16.72,0,0,1-28.3,4.14C30.68,100.52,29.42,96.91,29.44,91.94Zm31.79,3.13c-.55.1-1,.38-1,1a1,1,0,0,0,1,1,.93.93,0,0,0,1-.92C62.29,95.53,61.89,95.2,61.23,95.07Z"/><path class="cls-5" d="M46.6,104.44A11.75,11.75,0,0,1,34.67,93.83a12.51,12.51,0,0,1,2.5-8.9c.38-.53.85-1.06,1.68-.66.64.3,1,.76.81,1.44a3.75,3.75,0,0,1-.73,1.11,9.52,9.52,0,0,0,.28,11.7A9.35,9.35,0,0,0,47,102a9,9,0,0,0,5.9-2.39,18.28,18.28,0,0,0,1.46-1.46c.52-.58,1.54-.82,2-.35a1.23,1.23,0,0,1,0,1.78,12,12,0,0,1-7.73,4.67A10.32,10.32,0,0,1,46.6,104.44Z"/><path class="cls-3" d="M93.3,111.37a14.11,14.11,0,0,1-5.18-2.85l1.66-3.5a13.85,13.85,0,0,0,4.6,2.63,16.88,16.88,0,0,0,5.76,1,10.34,10.34,0,0,0,5.82-1.33,4.06,4.06,0,0,0,1.93-3.52,3.47,3.47,0,0,0-1-2.62,7,7,0,0,0-2.6-1.54,44.92,44.92,0,0,0-4.37-1.21,45.09,45.09,0,0,1-5.72-1.71,9.36,9.36,0,0,1-3.72-2.62,7,7,0,0,1-1.54-4.77,8.07,8.07,0,0,1,1.32-4.53,9.08,9.08,0,0,1,4-3.23,16.38,16.38,0,0,1,6.68-1.21,21.12,21.12,0,0,1,5.47.72A14.67,14.67,0,0,1,111,83.15l-1.48,3.59a16.32,16.32,0,0,0-4.21-1.91,15.83,15.83,0,0,0-4.39-.65,9.74,9.74,0,0,0-5.72,1.39,4.26,4.26,0,0,0-1.9,3.59,3.45,3.45,0,0,0,1.07,2.62A7.49,7.49,0,0,0,97,93.35a42.48,42.48,0,0,0,4.33,1.19,42.59,42.59,0,0,1,5.69,1.7,9.59,9.59,0,0,1,3.7,2.6,6.84,6.84,0,0,1,1.54,4.71,8.05,8.05,0,0,1-1.34,4.5,9,9,0,0,1-4.08,3.23,16.88,16.88,0,0,1-6.72,1.18A21.57,21.57,0,0,1,93.3,111.37Z"/><path class="cls-3" d="M140.65,83.64a9.91,9.91,0,0,1,3.5,8,9.89,9.89,0,0,1-3.5,8q-3.5,2.91-9.59,2.91h-7.75v9.51h-4.48V80.73h12.23Q137.15,80.73,140.65,83.64Zm-3.22,13.25a7.2,7.2,0,0,0,0-10.44c-1.5-1.21-3.66-1.82-6.5-1.82h-7.62V98.7h7.62C133.77,98.7,135.93,98.1,137.43,96.89Z"/><path class="cls-3" d="M171.72,112.11,165,102.47q-1.26.09-2,.09h-7.75v9.55h-4.48V80.73H163q6.1,0,9.6,2.91a9.9,9.9,0,0,1,3.49,8,10.51,10.51,0,0,1-1.79,6.18,10.08,10.08,0,0,1-5.11,3.72l7.44,10.54Zm-2.38-15.2a7.23,7.23,0,0,0,0-10.46q-2.24-1.82-6.5-1.82h-7.62V98.75h7.62Q167.1,98.75,169.34,96.91Z"/><path class="cls-3" d="M183.32,80.73h4.48v31.38h-4.48Z"/><path class="cls-3" d="M224.2,80.73v31.38h-3.68L201.7,88.71v23.4h-4.48V80.73h3.67l18.83,23.4V80.73Z"/><path class="cls-3" d="M255.35,96.24h4.3v12.24a16.61,16.61,0,0,1-5.42,3,20.17,20.17,0,0,1-6.45,1,17.56,17.56,0,0,1-8.57-2.08,15.43,15.43,0,0,1-6-5.74,15.73,15.73,0,0,1-2.17-8.22,15.89,15.89,0,0,1,2.17-8.25,15.23,15.23,0,0,1,6-5.74,19.25,19.25,0,0,1,15.46-.82,13.89,13.89,0,0,1,5.22,3.6L257.14,88a12.63,12.63,0,0,0-9.1-3.63,13.27,13.27,0,0,0-6.43,1.55,11.39,11.39,0,0,0-4.46,4.3,12.69,12.69,0,0,0,0,12.37,11.6,11.6,0,0,0,4.46,4.33,13.09,13.09,0,0,0,6.39,1.57,13.32,13.32,0,0,0,7.35-2Z"/><path class="cls-3" d="M268.21,80.73h4.49v27.48h17v3.9H268.21Z"/><path class="cls-3" d="M315,104.26H298.29l-3.45,7.85h-4.62l14.21-31.38h4.44l14.25,31.38h-4.71Zm-1.57-3.58L306.63,85.3l-6.77,15.38Z"/><path class="cls-3" d="M353.19,98.59a7.88,7.88,0,0,1,1.57,5,7.25,7.25,0,0,1-3.07,6.28c-2,1.46-5,2.2-8.94,2.2h-15V80.73h14.07q5.38,0,8.32,2.15a7,7,0,0,1,2.94,6A7.75,7.75,0,0,1,352,93.1a7.4,7.4,0,0,1-3.07,2.74A8,8,0,0,1,353.19,98.59ZM332.26,84.36v10h9.19a9.26,9.26,0,0,0,5.31-1.28,4.69,4.69,0,0,0,0-7.48,9.34,9.34,0,0,0-5.31-1.28Zm16.05,22.86a4.38,4.38,0,0,0,1.93-3.94q0-5.25-7.67-5.25H332.26v10.45h10.31A10.6,10.6,0,0,0,348.31,107.22Z"/><path class="cls-3" d="M364,111.37a14.11,14.11,0,0,1-5.18-2.85l1.66-3.5a13.8,13.8,0,0,0,4.59,2.63,17,17,0,0,0,5.76,1,10.38,10.38,0,0,0,5.83-1.33,4.06,4.06,0,0,0,1.93-3.52,3.44,3.44,0,0,0-1.06-2.62,6.86,6.86,0,0,0-2.6-1.54,44.11,44.11,0,0,0-4.37-1.21,44.87,44.87,0,0,1-5.71-1.71,9.36,9.36,0,0,1-3.72-2.62,7,7,0,0,1-1.55-4.77,8,8,0,0,1,1.33-4.53,9,9,0,0,1,4-3.23,16.38,16.38,0,0,1,6.68-1.21,21,21,0,0,1,5.46.72,14.63,14.63,0,0,1,4.62,2.06l-1.48,3.59A16.32,16.32,0,0,0,376,84.83a15.88,15.88,0,0,0-4.39-.65,9.74,9.74,0,0,0-5.72,1.39,4.26,4.26,0,0,0-1.9,3.59,3.42,3.42,0,0,0,1.07,2.62,7.49,7.49,0,0,0,2.67,1.57,42.92,42.92,0,0,0,4.32,1.19,42.8,42.8,0,0,1,5.7,1.7,9.56,9.56,0,0,1,3.69,2.6,6.84,6.84,0,0,1,1.55,4.71,8.05,8.05,0,0,1-1.34,4.5,9,9,0,0,1-4.08,3.23,17,17,0,0,1-6.73,1.18A21.47,21.47,0,0,1,364,111.37Z"/></g></g></svg>