<svg xmlns="http://www.w3.org/2000/svg" viewBox="0 0 450.45 198.5"><defs><style>.cls-1{isolation:isolate;}.cls-2,.cls-6{fill:#226030;}.cls-3{fill:#005d2f;}.cls-4{fill:#115d37;}.cls-5{fill:#0b5d34;}.cls-6{mix-blend-mode:overlay;}</style></defs><title>viascLogo</title><g class="cls-1"><g id="Capa_2" data-name="Capa 2"><g id="Capa_1-2" data-name="Capa 1"><circle class="cls-2" cx="105.42" cy="18.5" r="18.5"/><path class="cls-2" d="M87,67.1l27.42,81.4-16,.63,60.29,46.36a4.59,4.59,0,0,0,7.16-5.05L124.1,61.5a11.57,11.57,0,0,0-11-8H96.77A10.31,10.31,0,0,0,87,67.1Z"/><path class="cls-3" d="M221,107.53,202,160.93h-19.2l-19.92-53.4h19.86l9.71,29.11c.66,1.72,1.25,3.42,1.76,5.08l11.35-34.19Z"/><path class="cls-3" d="M245.52,107.53v53.4H226.68v-53.4Z"/><path class="cls-3" d="M290.07,160.93l-3.47-10.52H270.15l-3.68,10.52h-15.3l19-53.4H290l19.26,53.4Zm-16.71-22.18h9.93l-5-15.49Z"/><path class="cls-3" d="M308.61,145.48l17.49-2.74q2.2,6.45,11.34,6.46,7.1,0,7.1-3.29a3,3,0,0,0-1.64-2.68,19.54,19.54,0,0,0-5.87-1.7q-16.14-2.68-20.73-7a13.63,13.63,0,0,1-4.59-10.22q0-7.55,6.59-12.56t19-5q18.75,0,24.77,13.11l-15.6,4.11q-2.43-5.37-9.85-5.36c-4.11,0-6.16,1.1-6.16,3.32a2.58,2.58,0,0,0,1.39,2.31,18.64,18.64,0,0,0,5.4,1.56,126.68,126.68,0,0,1,15.65,3.59,16.79,16.79,0,0,1,7.74,5.33,13.65,13.65,0,0,1,3.1,8.91q0,8.1-7.56,13.13t-19.83,5Q313.87,161.75,308.61,145.48Z"/><path class="cls-3" d="M404.67,140.55l17.22.9q-1.22,9.83-8.34,15.06T396,161.75q-12.5,0-20.19-7.19t-7.69-19.88q0-12.56,7.29-20.26t20.32-7.71q12.19,0,18.73,5.87t7.4,15.57l-17.58.82q0-5.35-2.36-7.74a7.59,7.59,0,0,0-5.56-2.39q-8.89,0-8.9,15.57,0,8.73,2.31,11.85a7.62,7.62,0,0,0,6.5,3.13Q403.77,149.39,404.67,140.55Z"/><path class="cls-4" d="M422.68,119.13V106.61h3l1.84,8.55,1.82-8.55h3.05v12.52h-1.89v-9.87l-2,9.87h-2l-2-9.87v9.87Z"/><path class="cls-4" d="M434.43,119.13v-2.4h1.93v2.4Z"/><path class="cls-4" d="M438.37,119.13V106.61h4.28a6,6,0,0,1,2.35.33,2.67,2.67,0,0,1,1.16,1.17,4.16,4.16,0,0,1,.45,2,3.79,3.79,0,0,1-.69,2.37,3,3,0,0,1-2,1.12,5.21,5.21,0,0,1,1.09,1.05,15.48,15.48,0,0,1,1.16,2l1.23,2.44H445l-1.48-2.72a17.72,17.72,0,0,0-1.08-1.85,1.68,1.68,0,0,0-.6-.52,2.77,2.77,0,0,0-1-.14h-.42v5.23Zm2-7.23h1.51a7.64,7.64,0,0,0,1.76-.12,1.13,1.13,0,0,0,.61-.5,1.83,1.83,0,0,0,.24-1,1.71,1.71,0,0,0-.24-1,1.22,1.22,0,0,0-.64-.5,8.24,8.24,0,0,0-1.65-.09H440.4Z"/><path class="cls-4" d="M448.52,119.13v-2.4h1.93v2.4Z"/><path class="cls-5" d="M165.65,84.31h2.49v7.28a16.57,16.57,0,0,0,.09,2.21,2.18,2.18,0,0,0,.79,1.37,3,3,0,0,0,3.06.14,1.71,1.71,0,0,0,.74-1,10.24,10.24,0,0,0,.2-2.62V84.31h2.49v7.06a17.14,17.14,0,0,1-.32,3.91,3.39,3.39,0,0,1-1.46,2,5.38,5.38,0,0,1-3,.74,6.19,6.19,0,0,1-3-.61,3.7,3.7,0,0,1-1.57-1.75,11.83,11.83,0,0,1-.49-4.13Z"/><path class="cls-5" d="M180.9,97.75V84.31h2.43l5,9v-9h2.33V97.75H188.2l-5-8.77v8.77Z"/><path class="cls-5" d="M196,97.75V84.31h2.49V97.75Z"/><path class="cls-5" d="M203.59,84.31h4.55a7.83,7.83,0,0,1,2.61.34,4.37,4.37,0,0,1,1.61,1.16,5.67,5.67,0,0,1,1.16,2.12,10.71,10.71,0,0,1,.42,3.24,9.12,9.12,0,0,1-.44,3,5.63,5.63,0,0,1-1.12,2,4.37,4.37,0,0,1-1.63,1.14,6.89,6.89,0,0,1-2.47.38h-4.69Zm2.49,2.27v8.89H208a5.26,5.26,0,0,0,1.74-.2,2.09,2.09,0,0,0,.89-.61,3.27,3.27,0,0,0,.57-1.28,9.73,9.73,0,0,0,.22-2.32,9.17,9.17,0,0,0-.23-2.35,2.9,2.9,0,0,0-.72-1.36,2.37,2.37,0,0,0-1.18-.65,11,11,0,0,0-2-.12Z"/><path class="cls-5" d="M230,97.75h-2.7l-1.08-3h-4.95l-1,3h-2.65l4.81-13.44H225Zm-4.59-5.32-1.7-5-1.68,5Z"/><path class="cls-5" d="M234,84.31h4.55a7.8,7.8,0,0,1,2.6.34,4.48,4.48,0,0,1,1.62,1.16,5.81,5.81,0,0,1,1.16,2.12,10.71,10.71,0,0,1,.42,3.24,9.38,9.38,0,0,1-.44,3,6,6,0,0,1-1.12,2,4.49,4.49,0,0,1-1.64,1.14,6.89,6.89,0,0,1-2.47.38H234Zm2.48,2.27v8.89h1.87a5.29,5.29,0,0,0,1.75-.2,2.06,2.06,0,0,0,.88-.61,3.27,3.27,0,0,0,.57-1.28,12,12,0,0,0,0-4.67,3.09,3.09,0,0,0-.72-1.36,2.4,2.4,0,0,0-1.19-.65,11,11,0,0,0-2-.12Z"/><path class="cls-5" d="M256.72,84.31h4.55a7.72,7.72,0,0,1,2.6.34,4.32,4.32,0,0,1,1.62,1.16,5.81,5.81,0,0,1,1.16,2.12,10.71,10.71,0,0,1,.42,3.24,9.38,9.38,0,0,1-.44,3,6,6,0,0,1-1.12,2,4.41,4.41,0,0,1-1.64,1.14,6.85,6.85,0,0,1-2.47.38h-4.68Zm2.49,2.27v8.89h1.87a5.26,5.26,0,0,0,1.74-.2,2,2,0,0,0,.88-.61,3.41,3.41,0,0,0,.58-1.28,12.23,12.23,0,0,0,0-4.67,2.9,2.9,0,0,0-.72-1.36,2.36,2.36,0,0,0-1.19-.65,10.9,10.9,0,0,0-2-.12Z"/><path class="cls-5" d="M271.94,97.75V84.31h9.17v2.27h-6.69v3h6.21v2.27h-6.21v3.64h6.91v2.28Z"/><path class="cls-5" d="M296.88,97.75l-4.42-13.44h2.7l3.13,9.94,3-9.94H304l-4.43,13.44Z"/><path class="cls-5" d="M317.85,97.75h-2.7l-1.08-3h-4.95l-1,3h-2.65l4.81-13.44h2.64Zm-4.59-5.32-1.7-5-1.68,5Z"/><path class="cls-5" d="M322,97.75V84.42h2.49v11h6.2v2.28Z"/><path class="cls-5" d="M335.16,84.31h2.49v7.28a16.57,16.57,0,0,0,.09,2.21,2.14,2.14,0,0,0,.79,1.37,3,3,0,0,0,3.05.14,1.68,1.68,0,0,0,.75-1,10.74,10.74,0,0,0,.2-2.62V84.31H345v7.06a16.45,16.45,0,0,1-.33,3.91,3.3,3.3,0,0,1-1.46,2,5.32,5.32,0,0,1-3,.74,6.16,6.16,0,0,1-3-.61,3.65,3.65,0,0,1-1.57-1.75,11.59,11.59,0,0,1-.49-4.13Z"/><path class="cls-5" d="M361.53,97.75h-2.7l-1.09-3H352.8l-1,3h-2.65l4.81-13.44h2.65Zm-4.59-5.32-1.71-5-1.67,5Z"/><path class="cls-5" d="M373.49,92.81l2.41.83A5.78,5.78,0,0,1,374,96.93a5.5,5.5,0,0,1-7.15-.61,7.44,7.44,0,0,1-1.73-5.17,7.77,7.77,0,0,1,1.74-5.38,5.17,5.17,0,0,1,4.06-1.69,5,5,0,0,1,3.48,1.27A5.24,5.24,0,0,1,375.88,88l-2.46.64a2.92,2.92,0,0,0-.95-1.67,2.51,2.51,0,0,0-1.66-.58,2.73,2.73,0,0,0-2.23,1.06,5.58,5.58,0,0,0-.87,3.51,5.93,5.93,0,0,0,.84,3.61,2.66,2.66,0,0,0,2.19,1.08,2.39,2.39,0,0,0,1.71-.69A4.12,4.12,0,0,0,373.49,92.81Z"/><path class="cls-5" d="M380.7,97.75V84.31h2.48V97.75Z"/><path class="cls-5" d="M387.8,91.11a8.62,8.62,0,0,1,.8-4,5.5,5.5,0,0,1,2.08-2.32,6.11,6.11,0,0,1,3.12-.76,5.62,5.62,0,0,1,4.32,1.81A7.29,7.29,0,0,1,399.79,91,7.43,7.43,0,0,1,398,96.3,5.44,5.44,0,0,1,393.81,98a5.54,5.54,0,0,1-4.24-1.65A7.34,7.34,0,0,1,387.8,91.11Zm2.57-.09a5.27,5.27,0,0,0,1,3.48,3.11,3.11,0,0,0,2.45,1.16,3.07,3.07,0,0,0,2.44-1.15,5.4,5.4,0,0,0,1-3.54,5.32,5.32,0,0,0-.94-3.45,3.06,3.06,0,0,0-2.47-1.12,3.1,3.1,0,0,0-2.48,1.13A5.29,5.29,0,0,0,390.37,91Zm2.11-7.61,1.16-2.74h2.67L394,83.41Z"/><path class="cls-5" d="M404.51,97.75V84.31h2.43l5.05,9v-9h2.33V97.75h-2.51l-5-8.77v8.77Z"/><path class="cls-6" d="M84.41,63.89l-42,124.41a7.72,7.72,0,0,0,7.32,10.2H73.58a10.24,10.24,0,0,0,9.69-6.95l41.06-121.5A12.54,12.54,0,0,0,112.45,53.5H98.89A15.28,15.28,0,0,0,84.41,63.89Z"/><path class="cls-6" d="M.5,64.1,43.85,187.37A15.18,15.18,0,0,0,58.16,197.5H71.07A11.5,11.5,0,0,0,81.9,182.11L39.45,63.74a17,17,0,0,0-16-11.24H8.72A8.71,8.71,0,0,0,.5,64.1Z"/></g></g></g></svg>