<svg xmlns="http://www.w3.org/2000/svg" xmlns:xlink="http://www.w3.org/1999/xlink" viewBox="0 0 114.87 136.05"><defs><style>.cls-1{fill:none;}.cls-2{clip-path:url(#clip-path);}.cls-3{fill:url(#Degradado_sin_nombre_15);}.cls-4{clip-path:url(#clip-path-2);}.cls-5{fill:url(#Degradado_sin_nombre_15-2);}</style><clipPath id="clip-path"><path class="cls-1" d="M81.67,54.52c-.08,3.38.13,6.78-.25,10.13C79.84,78.93,64.24,90.93,47.67,83.76,38.25,79.68,33.26,72,33,61.56c-.06-2.41,0-4.82,0-7.23a3.44,3.44,0,0,0-3.4-3.27,3.36,3.36,0,0,0-3.46,3.09,109.86,109.86,0,0,0,.38,12.32c1.38,11.4,10.87,22,22,25,1.74.46,3.53.78,5.3,1.17v7.07H52.66c-1.25,0-2.49,0-3.73,0-3,0-6,0-9.07,0a3.45,3.45,0,0,0-1.32,6.61l.61.32H75.5c.36-.19.73-.36,1.07-.58a3.44,3.44,0,0,0-1.88-6.35c-3,0-6,0-9,0-1.26,0-2.53,0-3.8,0h-1V92.56L63,92.2A31.38,31.38,0,0,0,88,67.6c.83-4.5.53-9,.49-13.55a3.08,3.08,0,0,0-2.25-2.79A3.32,3.32,0,0,0,85.1,51a3.5,3.5,0,0,0-3.43,3.48"/></clipPath><linearGradient id="Degradado_sin_nombre_15" x1="-258.48" y1="99.5" x2="-256.72" y2="99.5" gradientTransform="matrix(0, -64.76, -64.76, 0, 6501.26, -16613.23)" gradientUnits="userSpaceOnUse"><stop offset="0" stop-color="#0097a6"/><stop offset="0.03" stop-color="#008da2"/><stop offset="0.11" stop-color="#007a9a"/><stop offset="0.18" stop-color="#006f96"/><stop offset="0.27" stop-color="#006b94"/><stop offset="0.52" stop-color="#563881"/><stop offset="0.78" stop-color="#97367d"/><stop offset="1" stop-color="#d3296b"/><stop offset="1" stop-color="#d3296b"/></linearGradient><clipPath id="clip-path-2"><path class="cls-1" d="M55.21,16.44A17.19,17.19,0,0,0,40,33c-.14,4.88,0,9.77,0,14.65h0c0,4.44,0,8.88,0,13.32a20.41,20.41,0,0,0,.13,2.82,17.36,17.36,0,0,0,34.58-2.31q.1-13.89,0-27.79a18.57,18.57,0,0,0-.71-5A17.26,17.26,0,0,0,57.33,16.31a16.87,16.87,0,0,0-2.12.13"/></clipPath><linearGradient id="Degradado_sin_nombre_15-2" x1="-258.48" y1="99.36" x2="-256.72" y2="99.36" gradientTransform="matrix(0, -64.76, -64.76, 0, 6491.72, -16618.51)" xlink:href="#Degradado_sin_nombre_15"/></defs><title>voiceprocess</title><g id="Capa_2" data-name="Capa 2"><g id="Capa_1-2" data-name="Capa 1"><g class="cls-2"><rect class="cls-3" x="15.77" y="38.11" width="83.33" height="81.48" transform="translate(-34.63 46.59) rotate(-34.62)"/></g><g class="cls-4"><rect class="cls-5" x="24.59" y="12.12" width="65.42" height="73.01" transform="translate(-17.48 41.16) rotate(-34.62)"/></g></g></g></svg>