<svg xmlns="http://www.w3.org/2000/svg" xmlns:xlink="http://www.w3.org/1999/xlink" viewBox="0 0 155.72 160.32"><defs><style>.cls-1{fill:none;}.cls-2{clip-path:url(#clip-path);}.cls-3{fill:url(#Degradado_sin_nombre_15);}.cls-4{clip-path:url(#clip-path-2);}.cls-5{fill:url(#Degradado_sin_nombre_15-2);}.cls-6{clip-path:url(#clip-path-3);}.cls-7{fill:url(#Degradado_sin_nombre_15-3);}.cls-8{clip-path:url(#clip-path-4);}.cls-9{fill:url(#Degradado_sin_nombre_15-4);}.cls-10{clip-path:url(#clip-path-5);}.cls-11{fill:url(#Degradado_sin_nombre_15-5);}.cls-12{clip-path:url(#clip-path-6);}.cls-13{fill:url(#Degradado_sin_nombre_15-6);}</style><clipPath id="clip-path"><path class="cls-1" d="M39.23,38.43s-.07.1-.12.12c-3.23,1.07-4.56,2.89-4.56,6.26V89.92a5.76,5.76,0,0,0,6.15,6.13c5.29,0,10.57,0,15.85,0h1v7.7H53.83v3.78H69.08v-3.79H61.49V96h3.75V92.23H41.08c-2.07,0-2.7-.62-2.7-2.67V45c0-2.13.6-2.73,2.71-2.73h63.75c2.09,0,2.69.58,2.69,2.65V78.7h3.81a2.28,2.28,0,0,0,0-.4c0-11.4,0-22.81,0-34.21a5.7,5.7,0,0,0-4.3-5.47c-.17,0-.33-.13-.5-.19Z"/></clipPath><linearGradient id="Degradado_sin_nombre_15" x1="-221.75" y1="578.35" x2="-220.09" y2="578.35" gradientTransform="matrix(0, -82.11, -82.11, 0, 47560.76, -18051.31)" gradientUnits="userSpaceOnUse"><stop offset="0" stop-color="#0097a6"/><stop offset="0.03" stop-color="#008da2"/><stop offset="0.11" stop-color="#007a9a"/><stop offset="0.18" stop-color="#006f96"/><stop offset="0.27" stop-color="#006b94"/><stop offset="0.52" stop-color="#563881"/><stop offset="0.78" stop-color="#97367d"/><stop offset="1" stop-color="#d3296b"/><stop offset="1" stop-color="#d3296b"/></linearGradient><clipPath id="clip-path-2"><path class="cls-1" d="M110.18,116.77l2.58-2.5,9.17,9.13L119.31,126l-9.13-9.19M73,93.88a17,17,0,1,1,17,17,17.09,17.09,0,0,1-17-17M86.88,73.22A20.87,20.87,0,1,0,95.41,114a21.46,21.46,0,0,0,7.3-3.59c.29-.22.55-.58,1-.14,1.2,1.21,2.43,2.4,3.93,3.87a10.63,10.63,0,0,0-1.34.95,2,2,0,0,0,0,3.13c.86.88,1.74,1.74,2.61,2.61q4.51,4.53,9,9c.91.91,2,1.06,2.79.24,2-2,4-4.1,6-6.15V122.7c-.48-.52-.93-1.07-1.43-1.58-1.45-1.47-2.92-2.93-4.39-4.4-2.1-2.1-4.19-4.2-6.3-6.29-1.42-1.41-2.24-1.41-3.66,0l-.93.86c-1.16-1.18-2.28-2.36-3.44-3.48-.44-.42-.39-.68-.09-1.19a34.48,34.48,0,0,0,3-5.58A20.83,20.83,0,0,0,90,73a21.82,21.82,0,0,0-3.09.22"/></clipPath><linearGradient id="Degradado_sin_nombre_15-2" x1="-221.75" y1="578.34" x2="-220.09" y2="578.34" gradientTransform="matrix(0, -82.11, -82.11, 0, 47584.32, -18060.09)" xlink:href="#Degradado_sin_nombre_15"/><clipPath id="clip-path-3"><path class="cls-1" d="M76.81,67.23a1.91,1.91,0,1,1,1.89-2,1.9,1.9,0,0,1-1.89,2h0M63.34,53.77a1.91,1.91,0,1,1,0-3.81,1.91,1.91,0,1,1,0,3.81h0m26.9,0a1.91,1.91,0,0,1,0-3.81,1.91,1.91,0,1,1,0,3.81h0M59.66,47.5a5.44,5.44,0,0,0-1.78,6.09A1.17,1.17,0,0,1,57.55,55c-.79.73-1.53,1.52-2.31,2.27-1.58,1.55-3.18,3.08-4.74,4.59l2.75,2.82c.27-.26.56-.52.83-.79,2.1-2.1,4.21-4.19,6.3-6.31a.86.86,0,0,1,1.08-.28,5.17,5.17,0,0,0,3.79,0,.88.88,0,0,1,1.09.27c1.55,1.59,3.13,3.16,4.72,4.7a1.07,1.07,0,0,1,.3,1.27,5.72,5.72,0,0,0,2,6.41,5.77,5.77,0,0,0,8.89-6.49,1.3,1.3,0,0,1,.22-1.07c1.58-1.65,3.2-3.26,4.84-4.84a1.44,1.44,0,0,1,1-.23,15.21,15.21,0,0,0,2.66.24,5.74,5.74,0,1,0-6.18-3.83,1,1,0,0,1-.29,1.18q-2.39,2.33-4.71,4.71a1,1,0,0,1-1.18.26,5,5,0,0,0-3.7,0,.93.93,0,0,1-1.17-.31c-1.39-1.41-2.77-2.82-4.21-4.19-.66-.62-1.11-1.19-.63-2.14a2.45,2.45,0,0,0,.18-1A5.5,5.5,0,0,0,66,46.77a6,6,0,0,0-2.7-.69,5.51,5.51,0,0,0-3.61,1.42"/></clipPath><linearGradient id="Degradado_sin_nombre_15-3" x1="-221.75" y1="578.28" x2="-220.09" y2="578.28" gradientTransform="matrix(0, -82.11, -82.11, 0, 47555.66, -18055.97)" xlink:href="#Degradado_sin_nombre_15"/><clipPath id="clip-path-4"><path class="cls-1" d="M42.26,78.82c0,1.34,0,2.62,0,3.9a5.56,5.56,0,0,0,4.83,5.53,38.4,38.4,0,0,0,4.68,0V84.53H50c-.6,0-1.2,0-1.8,0a1.93,1.93,0,0,1-2.12-2.13c0-1.17,0-2.33,0-3.58Z"/></clipPath><linearGradient id="Degradado_sin_nombre_15-4" x1="-221.75" y1="578.44" x2="-220.09" y2="578.44" gradientTransform="matrix(0, -82.11, -82.11, 0, 47542.21, -18029.87)" xlink:href="#Degradado_sin_nombre_15"/><clipPath id="clip-path-5"><rect class="cls-1" x="42.32" y="71.15" width="3.68" height="3.75"/></clipPath><linearGradient id="Degradado_sin_nombre_15-5" x1="-221.75" y1="578.42" x2="-220.09" y2="578.42" gradientTransform="matrix(0, -82.11, -82.11, 0, 47537.55, -18031.23)" xlink:href="#Degradado_sin_nombre_15"/><clipPath id="clip-path-6"><path class="cls-1" d="M90.29,80.82v3.7A9.54,9.54,0,0,1,97,87.35a9.84,9.84,0,0,1,2.85,6.72h3.72C103.93,87.34,97.87,80.8,91,80.8l-.71,0"/></clipPath><linearGradient id="Degradado_sin_nombre_15-6" x1="-221.75" y1="578.29" x2="-220.09" y2="578.29" gradientTransform="matrix(0, -82.11, -82.11, 0, 47580.01, -18064.24)" xlink:href="#Degradado_sin_nombre_15"/></defs><title>whatabout</title><g id="Capa_2" data-name="Capa 2"><g id="Capa_1-2" data-name="Capa 1"><g class="cls-2"><rect class="cls-3" x="21.38" y="21.38" width="103.21" height="103.21" transform="translate(-30.23 72.98) rotate(-45)"/></g><g class="cls-4"><rect class="cls-5" x="56.11" y="60.71" width="82.52" height="82.52" transform="translate(-43.58 98.72) rotate(-45)"/></g><g class="cls-6"><rect class="cls-7" x="48.07" y="33" width="50.91" height="50.91" transform="translate(-19.8 69.11) rotate(-45)"/></g><g class="cls-8"><rect class="cls-9" x="40.23" y="76.86" width="13.55" height="13.55" transform="translate(-45.37 57.73) rotate(-45)"/></g><g class="cls-10"><rect class="cls-11" x="41.53" y="70.39" width="5.25" height="5.25" transform="translate(-38.7 52.61) rotate(-45)"/></g><g class="cls-12"><rect class="cls-13" x="87.6" y="77.92" width="19.03" height="19.03" transform="translate(-33.38 94.28) rotate(-45)"/></g></g></g></svg>